<?xml version="1.0" encoding="UTF-8"?>
<!--Generator: Apple Native CoreSVG 326-->
<!DOCTYPE svg
PUBLIC "-//W3C//DTD SVG 1.1//EN"
       "http://www.w3.org/Graphics/SVG/1.1/DTD/svg11.dtd">
<svg version="1.1" xmlns="http://www.w3.org/2000/svg" xmlns:xlink="http://www.w3.org/1999/xlink" viewBox="0 0 127.197 127.295">
 <g>
  <rect height="127.295" opacity="0" width="127.197" x="0" y="0"/>
  <path d="M127.197 63.6719C127.197 98.7305 98.6328 127.295 63.5742 127.295C28.5645 127.295 0 98.7305 0 63.6719C0 28.6621 28.5645 0.0976562 63.5742 0.0976562C98.6328 0.0976562 127.197 28.6621 127.197 63.6719ZM49.6582 26.2207C44.3848 26.8066 40.8203 30.5176 39.5508 35.5957C38.2812 40.7227 37.0117 49.3652 37.0117 58.2031L37.0117 80.2734C37.0117 86.8164 40.6738 89.7461 47.3633 89.8438L40.6738 100.488C39.9414 101.709 40.5762 103.027 41.9434 103.027L43.5059 103.027C44.3848 103.027 44.8242 102.734 45.2148 102.051L47.0703 99.1211L80.127 99.1211L82.0312 102.051C82.4219 102.734 82.8613 103.027 83.7402 103.027L85.3516 103.027C86.6699 103.027 87.2559 101.709 86.4746 100.488L79.8828 89.8438C86.9629 89.7461 90.1367 86.2305 90.1367 80.2734L90.1367 58.2031C90.1367 49.3652 88.8672 40.7227 87.5977 35.5957C86.3281 30.5176 82.7637 26.8066 77.4902 26.2207C75.1953 25.9277 69.9219 25.5371 63.5742 25.5371C57.2754 25.5371 52.002 25.9277 49.6582 26.2207ZM77.4902 94.7754L49.7559 94.7754L52.832 89.8438L74.4629 89.8438ZM82.4707 78.9062C82.4707 81.2988 80.5664 83.1055 78.2715 83.1055C75.9277 83.1055 74.0723 81.2988 74.0723 78.9062C74.0723 76.5137 75.9277 74.6582 78.2715 74.6582C80.6641 74.6582 82.4707 76.5137 82.4707 78.9062ZM53.0273 78.9062C53.0273 81.3477 51.2207 83.0566 48.877 83.0566C46.4844 83.0566 44.7266 81.3477 44.7266 78.9062C44.7266 76.5137 46.4844 74.707 48.877 74.707C51.2695 74.707 53.0273 76.5137 53.0273 78.9062ZM79.3457 41.1621C80.9082 41.3574 81.8848 42.334 82.1777 43.8965C82.7637 46.5332 83.4473 51.6113 83.4473 57.7637L83.4473 65.1855C83.4473 67.0898 82.5195 68.3594 80.6152 68.5547C75.7324 69.0918 69.3848 69.3359 63.5742 69.3359C56.4453 69.2871 50.0977 68.9453 46.5332 68.5547C44.6289 68.3594 43.7012 67.0898 43.7012 65.1855L43.7012 57.7637C43.7012 51.6113 44.3848 46.5332 44.9707 43.8965C45.2637 42.334 46.1914 41.3574 47.6074 41.1621C51.2695 40.7715 55.7129 40.4785 63.5742 40.4785C71.4355 40.4297 75.8789 40.7715 79.3457 41.1621ZM73.584 33.5449C73.584 34.5703 72.8027 35.3516 71.7773 35.3516L55.4199 35.3516C54.3457 35.3516 53.6133 34.5703 53.6133 33.5449C53.6133 32.4707 54.3457 31.7871 55.4199 31.7871L71.7773 31.7871C72.8027 31.7871 73.584 32.4707 73.584 33.5449Z" fill="white" fill-opacity="0.85"/>
 </g>
</svg>
