<?xml version="1.0" encoding="UTF-8"?>
<svg version="1.1" xmlns="http://www.w3.org/2000/svg" width="100%" height="100%" viewBox="0 0 512 161" xml:space="preserve" style="fill-rule:evenodd;clip-rule:evenodd;stroke-linejoin:round;stroke-miterlimit:2;">
<path d="M0 0 C8.46656707 -0.30208383 16.9308629 -0.5326007 25.40149689 -0.67355824 C29.33568923 -0.74123914 33.26618083 -0.8328841 37.19824219 -0.98071289 C40.99818223 -1.12266956 44.79458195 -1.19982029 48.5969696 -1.23340416 C50.04229017 -1.25730916 51.48742986 -1.30400614 52.93122864 -1.37449074 C57.52011596 -1.58946925 61.6012716 -1.53392166 66 0 C69.71169971 3.95039338 71.74071517 8.06501773 74 13 C75.14749843 15.05620673 76.30908852 17.10469387 77.4921875 19.140625 C78.62261152 21.17551941 79.75017642 23.21200451 80.875 25.25 C85.86353089 34.27818142 85.86353089 34.27818142 91.125 43.1484375 C91.59309082 43.91381836 92.06118164 44.67919922 92.54345703 45.46777344 C93.40091501 46.85693712 94.27080109 48.2385445 95.15576172 49.61035156 C97.80010548 53.90558397 98.42526741 56.98699929 98 62 C97.34 62 96.68 62 96 62 C95.64921387 62.63164063 95.29842773 63.26328125 94.93701172 63.9140625 C93.25223943 66.94414211 91.56358968 69.97204613 89.875 73 C89.25423584 74.11745605 88.63347168 75.23491211 87.99389648 76.38623047 C84.72728867 82.23813325 81.40479894 88.03286532 77.91796875 93.7578125 C77.27166504 94.82773438 76.62536133 95.89765625 75.95947266 97 C74.7158271 99.04873399 73.45684949 101.08825624 72.18115234 103.1171875 C69.81834517 107.02841332 68.083206 109.90363857 67.734375 114.5 C69.6077475 119.68068444 72.31966727 124.18604186 75.1875 128.875 C76.45756191 131.00281338 77.72572906 133.13175864 78.9921875 135.26171875 C79.64928711 136.36177246 80.30638672 137.46182617 80.98339844 138.59521484 C84.33354165 144.25152201 87.58229791 149.96186462 90.8125 155.6875 C91.41666748 156.74372559 92.02083496 157.79995117 92.64331055 158.88818359 C93.20058838 159.8777002 93.75786621 160.8672168 94.33203125 161.88671875 C94.82421143 162.75514404 95.3163916 163.62356934 95.82348633 164.51831055 C97.07486151 167.15790978 97.82308877 169.07773032 98 172 C96.8828125 174.7253418 96.8828125 174.7253418 95.125 177.69921875 C94.4760376 178.81449951 93.8270752 179.92978027 93.15844727 181.07885742 C92.43922091 182.2818914 91.71973249 183.48476875 91 184.6875 C90.27324542 185.92535978 89.54792034 187.16405986 88.82397461 188.40356445 C87.32008685 190.97482346 85.80888917 193.54157562 84.29248047 196.10546875 C82.04186914 199.91817927 79.82984235 203.75219675 77.62890625 207.59375 C77.28370941 208.19580765 76.93851257 208.7978653 76.58285522 209.41816711 C75.90581301 210.59917058 75.22885998 211.78022519 74.55200195 212.96133423 C72.97680565 215.70923172 71.39869315 218.45539725 69.81640625 221.19921875 C69.29506104 222.10502686 68.77371582 223.01083496 68.23657227 223.9440918 C67 226 67 226 66 227 C63.95531026 227.10465469 61.90697446 227.13856044 59.85961914 227.14526367 C58.54478043 227.15164352 57.22994171 227.15802338 55.8752594 227.16459656 C54.42855872 227.16612511 52.98185755 227.16723914 51.53515625 227.16796875 C50.06164008 227.1711796 48.58812424 227.17454354 47.11460876 227.17805481 C44.0217922 227.18405252 40.92900361 227.18589406 37.83618164 227.18530273 C33.86686232 227.18520108 29.89772178 227.19885321 25.92844486 227.21607494 C22.88389762 227.22717637 19.83939383 227.22922252 16.79482841 227.22869301 C15.33115459 227.22987594 13.86747975 227.23431516 12.40382576 227.24202538 C10.35916558 227.2517872 8.3144533 227.24769288 6.26977539 227.24291992 C5.10474991 227.24434494 3.93972443 227.24576996 2.73939514 227.24723816 C0 227 0 227 -2 225 C-2.33 224.01 -2.66 223.02 -3 222 C-3.495 221.34 -3.99 220.68 -4.5 220 C-6 218 -6 218 -7 215 C-7.73671217 213.57661977 -8.5017531 212.16775713 -9.28515625 210.76953125 C-9.73310547 209.96708984 -10.18105469 209.16464844 -10.64257812 208.33789062 C-11.11115234 207.50451172 -11.57972656 206.67113281 -12.0625 205.8125 C-12.53494141 204.96751953 -13.00738281 204.12253906 -13.49414062 203.25195312 C-14.66048089 201.16667811 -15.82917932 199.08276166 -17 197 C-17.66 197 -18.32 197 -19 197 C-19.12375 196.21625 -19.2475 195.4325 -19.375 194.625 C-19.79117993 191.85942178 -19.79117993 191.85942178 -22 190 C-22.33 189.01 -22.66 188.02 -23 187 C-24.32935621 184.58579919 -25.6788577 182.19504123 -27.0625 179.8125 C-27.43955078 179.15830078 -27.81660156 178.50410156 -28.20507812 177.83007812 C-29.13429473 176.21865186 -30.06682722 174.60913849 -31 173 C-31.66 173 -32.32 173 -33 173 C-33 172.34 -33 171.68 -33 171 C-34.16391769 171.02997826 -34.16391769 171.02997826 -35.35134888 171.06056213 C-42.67793364 171.24118873 -50.00343383 171.37805802 -57.33166695 171.46630955 C-61.09903336 171.5132089 -64.86455494 171.57676496 -68.63085938 171.67895508 C-72.2685125 171.77703242 -75.9043966 171.83061222 -79.54327011 171.85389519 C-80.92855565 171.87047655 -82.31374828 171.90286198 -83.69827652 171.95157051 C-94.54952411 172.31800402 -94.54952411 172.31800402 -98.1161499 169.07711792 C-99.65439139 166.7788246 -100.82023176 164.49648409 -102 162 C-102.52159698 161.30503922 -103.04319397 160.61007843 -103.58059692 159.89405823 C-105 158 -105 158 -106 155 C-106.495 154.34 -106.99 153.68 -107.5 153 C-109 151 -109 151 -110 148 C-110.95654444 146.18240432 -111.94423159 144.38110926 -112.94921875 142.58984375 C-113.85124023 140.98012695 -113.85124023 140.98012695 -114.77148438 139.33789062 C-115.71991211 137.65469727 -115.71991211 137.65469727 -116.6875 135.9375 C-117.30044922 134.84244141 -117.91339844 133.74738281 -118.54492188 132.61914062 C-121.90923234 126.62902688 -125.34844512 120.72184727 -129.04223633 114.92797852 C-129.51632935 113.97362915 -129.51632935 113.97362915 -130 113 C-129 111 -129 111 -127.5 109.0625 C-125.82441763 106.97699265 -125.82441763 106.97699265 -125 104 C-124 102.66666667 -123 101.33333333 -122 100 C-121.67 99.01 -121.34 98.02 -121 97 C-120.566875 96.443125 -120.13375 95.88625 -119.6875 95.3125 C-117.33827755 92.09319516 -115.72189978 88.58341305 -114 85 C-113 83 -113 83 -111.5 81.0625 C-109.82441763 78.97699265 -109.82441763 78.97699265 -109 76 C-108 74.66666667 -107 73.33333333 -106 72 C-105.505 70.515 -105.505 70.515 -105 69 C-104 67.66666667 -103 66.33333333 -102 65 C-101.67 64.01 -101.34 63.02 -101 62 C-97.8 57.8 -97.8 57.8 -96 56 C-94.03630847 55.9059933 -92.06920801 55.88256619 -90.10327148 55.88647461 C-88.84203964 55.88655014 -87.5808078 55.88662567 -86.28135681 55.88670349 C-84.89460206 55.8918109 -83.50784771 55.89702691 -82.12109375 55.90234375 C-80.71004791 55.90420799 -79.29900143 55.90563186 -77.88795471 55.90663147 C-74.16759465 55.91045621 -70.4472734 55.9202861 -66.72692871 55.93133545 C-62.93319219 55.94155052 -59.13944942 55.94612929 -55.34570312 55.95117188 C-47.89711769 55.96190842 -40.44856428 55.9789843 -33 56 C-32.505 55.01 -32.505 55.01 -32 54 C-31.54343018 53.56518311 -31.08686035 53.13036621 -30.61645508 52.68237305 C-28.66369966 50.64998556 -27.49162952 48.55413722 -26.13671875 46.08203125 C-25.58588623 45.0856665 -25.03505371 44.08930176 -24.4675293 43.06274414 C-23.88011963 41.99016357 -23.29270996 40.91758301 -22.6875 39.8125 C-21.43935819 37.55626272 -20.18930314 35.30108296 -18.9375 33.046875 C-18.45654121 32.18039085 -18.45654121 32.18039085 -17.96586609 31.29640198 C-13.87466959 23.94677542 -9.61414634 16.69663059 -5.35620117 9.44262695 C-4.52052612 8.01889771 -4.52052612 8.01889771 -3.66796875 6.56640625 C-3.17578857 5.73052979 -2.6836084 4.89465332 -2.17651367 4.03344727 C-1.41142348 2.71109072 -0.68322615 1.3664523 0 0 Z M-31 57 C-36.95027895 66.29500097 -42.34499148 75.87509423 -47.69018555 85.52807617 C-50.43657334 90.47543555 -53.20291234 95.39382261 -56.16015625 100.21875 C-56.63275879 100.9931543 -57.10536133 101.76755859 -57.59228516 102.56542969 C-58.4634585 103.98017725 -59.34656093 105.38767629 -60.24365234 106.78613281 C-62.47248801 110.33705413 -62.47248801 110.33705413 -62.76660156 114.40429688 C-61.93940777 117.20516453 -60.83404895 119.35642195 -59.33203125 121.859375 C-58.77499512 122.7987793 -58.21795898 123.73818359 -57.64404297 124.70605469 C-56.7374292 126.21280762 -56.7374292 126.21280762 -55.8125 127.75 C-49.88540726 137.72452519 -44.16484015 147.78306413 -38.62036133 157.97558594 C-38.07275146 158.96848633 -37.5251416 159.96138672 -36.9609375 160.984375 C-36.48446777 161.85803711 -36.00799805 162.73169922 -35.51708984 163.63183594 C-33.92544672 166.11637702 -32.15607836 167.99647709 -30 170 C-29.34 169.67 -28.68 169.34 -28 169 C-26.13668781 168.90892097 -24.27007356 168.88247068 -22.40454102 168.88647461 C-21.23315079 168.88655014 -20.06176056 168.88662567 -18.85487366 168.88670349 C-17.58405441 168.89186478 -16.31323517 168.89702606 -15.00390625 168.90234375 C-13.70428452 168.9037587 -12.40466278 168.90517365 -11.06565857 168.90663147 C-7.6062122 168.91045224 -4.14680772 168.920275 -0.68737793 168.93133545 C2.8288517 168.94153649 6.34508798 168.94613227 9.86132812 168.95117188 C16.04517511 168.96075065 22.22899832 168.97525748 28.41282654 168.99327087 C30.27521274 168.99811486 32.1376075 169 34 169 C35.64652364 166.04205036 37.29210108 163.0835754 38.9375 160.125 C39.40607422 159.28324219 39.87464844 158.44148438 40.35742188 157.57421875 C40.80537109 156.76855469 41.25332031 155.96289062 41.71484375 155.1328125 C42.12855225 154.38918457 42.54226074 153.64555664 42.96850586 152.87939453 C44.16391145 150.7013514 45.24199733 148.49295798 46.3125 146.25 C48.00466082 142.9910236 49.93316847 140.03135292 52 137 C52.33 136.34 52.66 135.68 53 135 C54.79079871 131.90999438 56.59935107 128.83061456 58.40625 125.75 C59.31082306 124.18916805 60.19322261 122.61355478 61 121 C61.53625 120.0925 62.0725 119.185 62.625 118.25 C64.21773723 114.48534836 64.17751793 112.86898748 63 109 C61.63676257 106.9600281 61.63676257 106.9600281 60 105 C58.96708324 103.01679982 57.9662501 101.01652194 57 99 C55.5009107 95.88500925 53.79956239 92.95128231 52 90 C50.19910218 87.04652757 48.54605968 84.09211937 47 81 C46.525625 80.38125 46.05125 79.7625 45.5625 79.125 C43.67471679 76.55761483 42.37560611 73.87083015 41 71 C40.6866571 70.3854747 40.37331421 69.7709494 40.05047607 69.13780212 C39 67 39 67 37.98712158 64.44728088 C36.60148259 61.46500678 35.33081308 59.33418054 33 57 C28.31593775 55.66517045 23.73372472 55.99453371 18.921875 56.27734375 C17.54532385 56.3210244 16.16861823 56.36006151 14.79180908 56.39466858 C11.17975994 56.49717959 7.57286968 56.65931597 3.96374512 56.83520508 C-0.43031134 57.03824998 -4.82695344 57.17067237 -9.22327805 57.3141489 C-12.64130835 57.42710907 -16.05797492 57.55034907 -19.47442627 57.70433044 C-21.30708038 57.78289024 -21.30708038 57.78289024 -23.17675781 57.86303711 C-24.2556427 57.91318466 -25.33452759 57.96333221 -26.44610596 58.01499939 C-29 58 -29 58 -31 57 Z M64 113 C65 115 65 115 65 115 Z " fill="#009BD9" transform="translate(414,0)"/>
<path d="M0 0 C13.2 0 26.4 0 40 0 C46.25 11.5625 46.25 11.5625 48.19628906 15.16625977 C51.07170773 20.48005851 53.97007432 25.77262822 57 31 C57.66 31 58.32 31 59 31 C59.15275391 32.05767578 59.15275391 32.05767578 59.30859375 33.13671875 C60.09914812 36.41059645 61.40523734 38.88584467 63.0625 41.8125 C63.61035156 42.78832031 64.15820312 43.76414063 64.72265625 44.76953125 C65.35494141 45.87361328 65.35494141 45.87361328 66 47 C66.98585453 34.83525934 67.07723797 22.74159579 66.96289062 10.5402832 C66.95451172 9.32042725 66.94613281 8.10057129 66.9375 6.84375 C66.92589844 5.74224609 66.91429687 4.64074219 66.90234375 3.50585938 C67 1 67 1 68 0 C81.2 0 94.4 0 108 0 C108 37.62 108 75.24 108 114 C94.8 114 81.6 114 68 114 C59.17758243 98.07478862 50.37467552 82.16553953 42 66 C40.31873519 68.94916306 39.73950121 71.10892995 39.68115234 74.49316406 C39.66128265 75.37377502 39.64141296 76.25438599 39.62094116 77.16168213 C39.60361435 78.57438385 39.60361435 78.57438385 39.5859375 80.015625 C39.56657135 80.98659119 39.5472052 81.95755737 39.5272522 82.95794678 C39.46753491 86.05520886 39.4211022 89.15250826 39.375 92.25 C39.33681302 94.35157859 39.29776086 96.45314165 39.2578125 98.5546875 C39.16021333 103.7030436 39.08058196 108.85123685 39 114 C26.13 114 13.26 114 0 114 C0 76.38 0 38.76 0 0 Z M68 32 C68 38.27 68 44.54 68 51 C68.33 51 68.66 51 69 51 C69 44.73 69 38.46 69 32 C68.67 32 68.34 32 68 32 Z M66 48 C67 51 67 51 67 51 Z M67 51 C68 53 68 53 68 53 Z M69 52 C68.67 52.99 68.34 53.98 68 55 C68.99 56.485 68.99 56.485 70 58 C70 56.02 70 54.04 70 52 C69.67 52 69.34 52 69 52 Z M37 56 C37.33 57.32 37.66 58.64 38 60 C38.33 59.34 38.66 58.68 39 58 C38.34 57.34 37.68 56.68 37 56 Z M39 60 C37.79438816 60.98267859 37.79438816 60.98267859 37.90234375 62.84765625 C37.91394531 63.57855469 37.92554688 64.30945313 37.9375 65.0625 C37.958125 66.361875 37.97875 67.66125 38 69 C38.33 69 38.66 69 39 69 C39.33 66.03 39.66 63.06 40 60 C39.67 60 39.34 60 39 60 Z M40 62 C41 64 41 64 41 64 Z " fill="#00315D" transform="translate(255,206)"/>
<path d="M0 0 C0.495 0.99 0.495 0.99 1 2 C3.48692027 2.39306011 3.48692027 2.39306011 6.375 2.5 C12.47043917 2.82165906 15.34676256 5.21248115 20 9 C20.99 9.70125 21.98 10.4025 23 11.125 C28.20927821 15.45933484 31.02942145 22.4160754 32 29 C32.73229754 39.61831434 32.09692104 50.52312209 25 59 C21.59363877 62.30289698 18.32008697 64.99153851 14 67 C15.1241176 68.29243468 16.24932592 69.58392075 17.375 70.875 C18.00148438 71.59429687 18.62796875 72.31359375 19.2734375 73.0546875 C20.47426834 74.4076598 21.7208345 75.7208345 23 77 C23.3746564 78.32231671 23.69598643 79.65967741 24 81 C24.84007219 83.58907494 25.69231894 86.17114408 26.5625 88.75 C26.79646484 89.44738281 27.03042969 90.14476562 27.27148438 90.86328125 C27.84629379 92.5759787 28.42296275 94.28805186 29 96 C29.66 96 30.32 96 31 96 C31 98.31 31 100.62 31 103 C31.66 103 32.32 103 33 103 C32.979375 104.051875 32.95875 105.10375 32.9375 106.1875 C32.88929767 110.22656139 32.88929767 110.22656139 34 115 C19.15 115 4.3 115 -11 115 C-11.66 113.68 -12.32 112.36 -13 111 C-13.33 111 -13.66 111 -14 111 C-13.95359375 110.40316406 -13.9071875 109.80632812 -13.859375 109.19140625 C-13.60017676 102.96139147 -14.36042116 97.29282221 -15.75 91.25 C-15.90694336 90.54174072 -16.06388672 89.83348145 -16.22558594 89.10375977 C-17.42784657 84.16952982 -19.31459218 80.31019238 -22 76 C-24.97 76 -27.94 76 -31 76 C-31 88.87 -31 101.74 -31 115 C-44.53 115 -58.06 115 -72 115 C-72 77.38 -72 39.76 -72 1 C-61.605 0.835 -51.21 0.67 -40.5 0.5 C-37.23158203 0.44779297 -33.96316406 0.39558594 -30.59570312 0.34179688 C-27.9908862 0.30073136 -25.38606854 0.2597126 -22.78125 0.21875 C-22.11379761 0.20799438 -21.44634521 0.19723877 -20.75866699 0.18615723 C-13.83849939 0.07481534 -6.92113903 -0.03076062 0 0 Z M-31 27 C-31 35.58 -31 44.16 -31 53 C-28.69 53 -26.38 53 -24 53 C-24 52.67 -24 52.34 -24 52 C-25.98 52 -27.96 52 -30 52 C-30 43.75 -30 35.5 -30 27 C-30.33 27 -30.66 27 -31 27 Z M-29 27 C-29 34.92 -29 42.84 -29 51 C-19.87549652 52.51706208 -19.87549652 52.51706208 -13 49 C-9.29815286 45.05136306 -9.64378789 40.66086015 -9.6015625 35.5234375 C-10.06670022 32.57756528 -10.67952928 31.79754774 -13 30 C-16.52155964 27.65229357 -18.50771843 27.62330386 -22.6875 27.375 C-24.770625 27.25125 -26.85375 27.1275 -29 27 Z " fill="#00315D" transform="translate(204,205)"/>
<path d="M0 0 C15.84 0 31.68 0 48 0 C48 3.63 48 7.26 48 11 C48.27243411 13.00920153 48.57150427 15.01820725 49 17 C49.66 17 50.32 17 51 17 C51.1690907 19.06230268 51.33517133 21.1248523 51.5 23.1875 C51.5928125 24.33605469 51.685625 25.48460937 51.78125 26.66796875 C51.9645962 29.46072426 52.04213637 32.20319812 52 35 C52.66 35 53.32 35 54 35 C53.97679687 35.64324219 53.95359375 36.28648437 53.9296875 36.94921875 C53.78135209 44.37658476 54.20745783 51.76344085 56 59 C56.99 59.495 56.99 59.495 58 60 C57.98839844 60.84304688 57.97679687 61.68609375 57.96484375 62.5546875 C57.95582031 63.65039062 57.94679687 64.74609375 57.9375 65.875 C57.92589844 66.96554687 57.91429687 68.05609375 57.90234375 69.1796875 C57.80255697 71.95177546 57.80255697 71.95177546 59 74 C59.66 70.04 60.32 66.08 61 62 C61.66 62 62.32 62 63 62 C64.82283831 51.62718197 66.57014005 41.57926542 66 31 C66.66 31 67.32 31 68 31 C68.6761872 27.14744143 69.33923092 23.29273043 70 19.4375 C70.19078125 18.35146484 70.3815625 17.26542969 70.578125 16.14648438 C70.84882813 14.55610352 70.84882813 14.55610352 71.125 12.93359375 C71.29257813 11.96478271 71.46015625 10.99597168 71.6328125 9.99780273 C72.14183977 6.34535542 72.14183977 6.34535542 72 0 C87.84 0 103.68 0 120 0 C119.01 4.29 118.02 8.58 117 13 C116.74292544 17.04339719 116.74292544 17.04339719 117 20 C116.34 20 115.68 20 115 20 C113.81868955 24.18350864 112.65759263 28.37237225 111.5 32.5625 C111.16613281 33.74392578 110.83226563 34.92535156 110.48828125 36.14257812 C108.91023478 41.89117599 107.50872263 47.02571633 108 53 C107.34 53 106.68 53 106 53 C104.81868955 57.18350864 103.65759263 61.37237225 102.5 65.5625 C102.16613281 66.74392578 101.83226563 67.92535156 101.48828125 69.14257812 C99.91023478 74.89117599 98.50872263 80.02571633 99 86 C98.34 86 97.68 86 97 86 C96.79318604 86.77714355 96.58637207 87.55428711 96.37329102 88.35498047 C95.4385956 91.86225373 94.50059074 95.36863343 93.5625 98.875 C93.23701172 100.09832031 92.91152344 101.32164062 92.57617188 102.58203125 C92.26357422 103.74863281 91.95097656 104.91523438 91.62890625 106.1171875 C91.34088135 107.19597168 91.05285645 108.27475586 90.75610352 109.38623047 C90 112 90 112 89 114 C69.53 114 50.06 114 30 114 C27.69 105.42 25.38 96.84 23 88 C22.34 88 21.68 88 21 88 C21.04060547 87.00798584 21.08121094 86.01597168 21.12304688 84.99389648 C20.99354384 80.79044394 20.18236275 77.10714777 19.03125 73.09765625 C18.8314856 72.3750914 18.63172119 71.65252655 18.42590332 70.9080658 C17.79231578 68.62377609 17.14639374 66.343195 16.5 64.0625 C16.0655831 62.50478662 15.63198121 60.9468457 15.19921875 59.38867188 C14.1422161 55.58975255 13.07414503 51.79410624 12 48 C11.34 48 10.68 48 10 48 C10.04125 47.00871094 10.0825 46.01742187 10.125 44.99609375 C9.99082164 40.70657916 9.18795232 37.15210613 8 33.0625 C7.80921875 32.37865234 7.6184375 31.69480469 7.421875 30.99023438 C6.95595063 29.32455474 6.47911589 27.66193325 6 26 C5.34 26 4.68 26 4 26 C4.04125 24.9275 4.0825 23.855 4.125 22.75 C4.00725349 19.2176046 3.71166537 17.91989975 2 15 C1 11 1 11 0 0 Z M50 23 C50 24.98 50 26.96 50 29 C50.33 29 50.66 29 51 29 C51 27.02 51 25.04 51 23 C50.67 23 50.34 23 50 23 Z M61 69 C61 70.98 61 72.96 61 75 C61.33 75 61.66 75 62 75 C62 73.02 62 71.04 62 69 C61.67 69 61.34 69 61 69 Z M60 75 C60 76.98 60 78.96 60 81 C60.33 81 60.66 81 61 81 C61 79.02 61 77.04 61 75 C60.67 75 60.34 75 60 75 Z M59 81 C59 82.98 59 84.96 59 87 C59.33 87 59.66 87 60 87 C60 85.02 60 83.04 60 81 C59.67 81 59.34 81 59 81 Z " fill="#00315D" transform="translate(0,206)"/>
<path d="M0 0 C0.33 0 0.66 0 1 0 C1 37.62 1 75.24 1 114 C0.67 114 0.34 114 0 114 C0 76.38 0 38.76 0 0 Z " fill="#003D75" transform="translate(364,206)"/>
<path d="M0 0 C0.33 0 0.66 0 1 0 C1 37.62 1 75.24 1 114 C0.67 114 0.34 114 0 114 C0 76.38 0 38.76 0 0 Z " fill="#002549" transform="translate(253,206)"/>
<path d="M0 0 C0.33 0 0.66 0 1 0 C1 37.62 1 75.24 1 114 C0.67 114 0.34 114 0 114 C0 76.38 0 38.76 0 0 Z " fill="#000000" transform="translate(130,206)"/>
<path d="M0 0 C0.33 0 0.66 0 1 0 C1 36.96 1 73.92 1 112 C0.67 112 0.34 112 0 112 C0 75.04 0 38.08 0 0 Z " fill="#003B70" transform="translate(366,207)"/>
<path d="M0 0 C0.33 0 0.66 0 1 0 C1 36.96 1 73.92 1 112 C0.67 112 0.34 112 0 112 C0 75.04 0 38.08 0 0 Z " fill="#000000" transform="translate(128,207)"/>
<path d="M0 0 C0.66 0.99 1.32 1.98 2 3 C4.62293289 3.4781212 4.62293289 3.4781212 7.73486328 3.43237305 C9.53650436 3.46206429 9.53650436 3.46206429 11.37454224 3.49235535 C13.32769852 3.50194023 13.32769852 3.50194023 15.3203125 3.51171875 C16.6626857 3.52855912 18.00504306 3.54670849 19.34738159 3.56611633 C22.88188734 3.61369307 26.41632893 3.64345225 29.9510498 3.66955566 C33.55733925 3.69932289 37.16340739 3.74586623 40.76953125 3.79101562 C47.84622767 3.87713556 54.92299237 3.94444188 62 4 C62 4.33 62 4.66 62 5 C54.09850527 5.15383348 46.19693346 5.30201448 38.29519939 5.4429636 C34.62618389 5.50858858 30.95722593 5.57616621 27.28833008 5.64819336 C23.74820418 5.71762088 20.20801906 5.78193612 16.66773415 5.84269524 C14.6585244 5.87851748 12.64941153 5.91964503 10.64030457 5.96083069 C9.41926529 5.98092697 8.19822601 6.00102325 6.94018555 6.02172852 C5.32469063 6.05170677 5.32469063 6.05170677 3.67655945 6.08229065 C1 6 1 6 -2 5 C-1.34 3.35 -0.68 1.7 0 0 Z " fill="#00F4FA" transform="translate(384,53)"/>
<path d="M0 0 C21.78 0 43.56 0 66 0 C66 0.33 66 0.66 66 1 C44.22 1 22.44 1 0 1 C0 0.67 0 0.34 0 0 Z " fill="#000405" transform="translate(414,228)"/>
<path d="M0 0 C21.45 0 42.9 0 65 0 C65 0.33 65 0.66 65 1 C43.55 1 22.1 1 0 1 C0 0.67 0 0.34 0 0 Z " fill="#000000" transform="translate(415,230)"/>
<path d="M0 0 C21.12 0 42.24 0 64 0 C64 0.33 64 0.66 64 1 C42.88 1 21.76 1 0 1 C0 0.67 0 0.34 0 0 Z " fill="#003565" transform="translate(132,204)"/>
<path d="M0 0 C20.46 0 40.92 0 62 0 C62 0.33 62 0.66 62 1 C41.54 1 21.08 1 0 1 C0 0.67 0 0.34 0 0 Z " fill="#0099D9" transform="translate(318,172)"/>
<path d="M0 0 C20.46 0 40.92 0 62 0 C62 0.33 62 0.66 62 1 C41.54 1 21.08 1 0 1 C0 0.67 0 0.34 0 0 Z " fill="#0099D8" transform="translate(318,54)"/>
<path d="M0 0 C19.47 0 38.94 0 59 0 C59 0.33 59 0.66 59 1 C39.53 1 20.06 1 0 1 C0 0.67 0 0.34 0 0 Z " fill="#00315E" transform="translate(132,202)"/>
<path d="M0 0 C15.18 0 30.36 0 46 0 C46 0.33 46 0.66 46 1 C30.82 1 15.64 1 0 1 C0 0.67 0 0.34 0 0 Z " fill="#002F5B" transform="translate(74,204)"/>
<path d="M0 0 C15.18 0 30.36 0 46 0 C46 0.33 46 0.66 46 1 C30.82 1 15.64 1 0 1 C0 0.67 0 0.34 0 0 Z " fill="#00335E" transform="translate(0,204)"/>
<path d="M0 0 C14.85 0 29.7 0 45 0 C45 0.33 45 0.66 45 1 C30.15 1 15.3 1 0 1 C0 0.67 0 0.34 0 0 Z " fill="#002F5A" transform="translate(74,202)"/>
<path d="M0 0 C14.85 0 29.7 0 45 0 C45 0.33 45 0.66 45 1 C30.15 1 15.3 1 0 1 C0 0.67 0 0.34 0 0 Z " fill="#002F5A" transform="translate(0,202)"/>
<path d="M0 0 C2.26760594 4.53521188 2.17128989 7.80077006 1.9765625 12.703125 C1.95153656 13.54091492 1.92651062 14.37870483 1.90072632 15.24188232 C1.81870568 17.91167749 1.72204751 20.58071296 1.625 23.25 C1.56674206 25.0624692 1.50943917 26.87496937 1.453125 28.6875 C1.31315369 33.12543512 1.16005494 37.56274564 1 42 C0.67 42 0.34 42 0 42 C0 28.14 0 14.28 0 0 Z " fill="#000F31" transform="translate(297,278)"/>
<path d="M0 0 C1.98 0 3.96 0 6 0 C6 0.33 6 0.66 6 1 C4.35 1 2.7 1 1 1 C1 13.21 1 25.42 1 38 C0.67 38 0.34 38 0 38 C0 25.46 0 12.92 0 0 Z " fill="#002D52" transform="translate(174,282)"/>
<path d="M0 0 C0.33 0 0.66 0 1 0 C1 13.86 1 27.72 1 42 C0.67 42 0.34 42 0 42 C0 28.14 0 14.28 0 0 Z " fill="#00153D" transform="translate(295,278)"/>
<path d="M0 0 C1.32 0.33 2.64 0.66 4 1 C3.01 1 2.02 1 1 1 C1 12.55 1 24.1 1 36 C0.67 36 0.34 36 0 36 C0 24.12 0 12.24 0 0 Z " fill="#002D55" transform="translate(176,284)"/>
<path d="M0 0 C12.87 0 25.74 0 39 0 C39 0.33 39 0.66 39 1 C26.13 1 13.26 1 0 1 C0 0.67 0 0.34 0 0 Z " fill="#00305C" transform="translate(324,204)"/>
<path d="M0 0 C12.87 0 25.74 0 39 0 C39 0.33 39 0.66 39 1 C26.13 1 13.26 1 0 1 C0 0.67 0 0.34 0 0 Z " fill="#002F5A" transform="translate(255,204)"/>
<path d="M0 0 C12.87 0 25.74 0 39 0 C39 0.33 39 0.66 39 1 C26.13 1 13.26 1 0 1 C0 0.67 0 0.34 0 0 Z " fill="#002F5A" transform="translate(255,202)"/>
<path d="M0 0 C12.54 0 25.08 0 38 0 C38 0.33 38 0.66 38 1 C25.46 1 12.92 1 0 1 C0 0.67 0 0.34 0 0 Z " fill="#002F5A" transform="translate(324,202)"/>
<path d="M0 0 C0.33 0.66 0.66 1.32 1 2 C0.0625 4.625 0.0625 4.625 -1 7 C-1.66 7 -2.32 7 -3 7 C-3.33 8.65 -3.66 10.3 -4 12 C-4.66 12 -5.32 12 -6 12 C-5.67 9.69 -5.34 7.38 -5 5 C-4.34 5 -3.68 5 -3 5 C-1.3553326 2.53673288 -1.3553326 2.53673288 0 0 Z " fill="#00C0EA" transform="translate(470,129)"/>
<path d="M0 0 C1 2 1 2 0.1875 5.0625 C-1 8 -1 8 -3 9 C-3.33 9.99 -3.66 10.98 -4 12 C-4.66 12 -5.32 12 -6 12 C-4.43358249 7.69235185 -2.31663844 3.93828536 0 0 Z " fill="#00C3F1" transform="translate(396,32)"/>
<path d="M0 0 C0.66 0.99 1.32 1.98 2 3 C0.625 5 0.625 5 -1 7 C-1.66 7 -2.32 7 -3 7 C-3 7.99 -3 8.98 -3 10 C-3.66 10 -4.32 10 -5 10 C-3.66511872 6.40608886 -2.03977277 3.24509304 0 0 Z " fill="#00C3F0" transform="translate(454,157)"/>
<path d="M0 0 C0.33 0 0.66 0 1 0 C1.33 6.6 1.66 13.2 2 20 C1.34 20 0.68 20 0 20 C0 13.4 0 6.8 0 0 Z " fill="#00284A" transform="translate(176,235)"/>
<path d="M0 0 C0.99 0 1.98 0 3 0 C3.33 0.99 3.66 1.98 4 3 C2.6875 5.1875 2.6875 5.1875 1 7 C0.34 7 -0.32 7 -1 7 C-0.67 4.69 -0.34 2.38 0 0 Z " fill="#00B5DE" transform="translate(292,97)"/>
<path d="M0 0 C0.99 0 1.98 0 3 0 C3.33 0.99 3.66 1.98 4 3 C2.6875 5.1875 2.6875 5.1875 1 7 C0.34 7 -0.32 7 -1 7 C-0.67 4.69 -0.34 2.38 0 0 Z " fill="#00B5DD" transform="translate(308,69)"/>
<path d="M0 0 C0.66 0.33 1.32 0.66 2 1 C1.67 1.99 1.34 2.98 1 4 C0.34 4 -0.32 4 -1 4 C-1.33 5.65 -1.66 7.3 -2 9 C-2.66 9 -3.32 9 -4 9 C-2.94124926 5.59687262 -1.99097846 2.98646769 0 0 Z " fill="#00C1EF" transform="translate(405,16)"/>
<path d="M0 0 C0.33 0 0.66 0 1 0 C1 3.96 1 7.92 1 12 C0.67 12 0.34 12 0 12 C0 8.04 0 4.08 0 0 Z " fill="#0070C7" transform="translate(237,234)"/>
<path d="M0 0 C0.33 0 0.66 0 1 0 C1 3.63 1 7.26 1 11 C0.67 11 0.34 11 0 11 C0 7.37 0 3.74 0 0 Z " fill="#003762" transform="translate(192,238)"/>
<path d="M0 0 C0.33 0 0.66 0 1 0 C1 3.3 1 6.6 1 10 C0.67 10 0.34 10 0 10 C0 6.7 0 3.4 0 0 Z " fill="#003664" transform="translate(190,238)"/>
<path d="M0 0 C0.33 0 0.66 0 1 0 C1 3.3 1 6.6 1 10 C0.67 10 0.34 10 0 10 C0 6.7 0 3.4 0 0 Z " fill="#0065BA" transform="translate(239,235)"/>
<path d="M0 0 C0.33 0 0.66 0 1 0 C1 2.31 1 4.62 1 7 C0.67 7 0.34 7 0 7 C0 4.69 0 2.38 0 0 Z " fill="#003762" transform="translate(62,261)"/>
<path d="M0 0 C2.31 0 4.62 0 7 0 C7 0.33 7 0.66 7 1 C4.69 1 2.38 1 0 1 C0 0.67 0 0.34 0 0 Z " fill="#004D73" transform="translate(181,234)"/>
<path d="M0 0 C0.33 0 0.66 0 1 0 C1 2.31 1 4.62 1 7 C0.67 7 0.34 7 0 7 C0 4.69 0 2.38 0 0 Z " fill="#004A6D" transform="translate(70,213)"/>
<path d="M0 0 C2.31 0 4.62 0 7 0 C7 0.33 7 0.66 7 1 C4.69 1 2.38 1 0 1 C0 0.67 0 0.34 0 0 Z " fill="#00294B" transform="translate(197,203)"/>
<path d="M0 0 C0.33 0 0.66 0 1 0 C1 1.98 1 3.96 1 6 C0.67 6 0.34 6 0 6 C0 4.02 0 2.04 0 0 Z " fill="#003174" transform="translate(188,299)"/>
<path d="M0 0 C0.33 0 0.66 0 1 0 C1 1.98 1 3.96 1 6 C0.67 6 0.34 6 0 6 C0 4.02 0 2.04 0 0 Z " fill="#003566" transform="translate(58,272)"/>
<path d="M0 0 C0.33 0 0.66 0 1 0 C1 1.98 1 3.96 1 6 C0.67 6 0.34 6 0 6 C0 4.02 0 2.04 0 0 Z " fill="#002855" transform="translate(59,266)"/>
<path d="M0 0 C0.33 0 0.66 0 1 0 C1 1.98 1 3.96 1 6 C0.67 6 0.34 6 0 6 C0 4.02 0 2.04 0 0 Z " fill="#003458" transform="translate(63,255)"/>
<path d="M0 0 C0.33 0 0.66 0 1 0 C1 1.98 1 3.96 1 6 C0.67 6 0.34 6 0 6 C0 4.02 0 2.04 0 0 Z " fill="#004E70" transform="translate(55,253)"/>
<path d="M0 0 C0.33 0 0.66 0 1 0 C1 1.98 1 3.96 1 6 C0.67 6 0.34 6 0 6 C0 4.02 0 2.04 0 0 Z " fill="#004969" transform="translate(64,249)"/>
<path d="M0 0 C0.33 0 0.66 0 1 0 C1 1.98 1 3.96 1 6 C0.67 6 0.34 6 0 6 C0 4.02 0 2.04 0 0 Z " fill="#003F6E" transform="translate(67,231)"/>
<path d="M0 0 C0.33 0 0.66 0 1 0 C1 1.98 1 3.96 1 6 C0.67 6 0.34 6 0 6 C0 4.02 0 2.04 0 0 Z " fill="#003757" transform="translate(69,220)"/>
<path d="M0 0 C0.33 0 0.66 0 1 0 C1 1.98 1 3.96 1 6 C0.67 6 0.34 6 0 6 C0 4.02 0 2.04 0 0 Z " fill="#004B69" transform="translate(49,217)"/>
<path d="M0 0 C0.33 0 0.66 0 1 0 C1 1.65 1 3.3 1 5 C0.67 5 0.34 5 0 5 C0 3.35 0 1.7 0 0 Z " fill="#003656" transform="translate(189,305)"/>
<path d="M0 0 C0.33 0 0.66 0 1 0 C1 1.65 1 3.3 1 5 C0.67 5 0.34 5 0 5 C0 3.35 0 1.7 0 0 Z " fill="#002A51" transform="translate(56,260)"/>
<path d="M0 0 C0.33 0 0.66 0 1 0 C1 1.65 1 3.3 1 5 C0.67 5 0.34 5 0 5 C0 3.35 0 1.7 0 0 Z " fill="#002A4F" transform="translate(58,260)"/>
<path d="M0 0 C0.33 0 0.66 0 1 0 C1 1.65 1 3.3 1 5 C0.67 5 0.34 5 0 5 C0 3.35 0 1.7 0 0 Z " fill="#00244A" transform="translate(62,250)"/>
<path d="M0 0 C0.33 0 0.66 0 1 0 C1 1.65 1 3.3 1 5 C0.67 5 0.34 5 0 5 C0 3.35 0 1.7 0 0 Z " fill="#002C5C" transform="translate(238,247)"/>
<path d="M0 0 C0.33 0 0.66 0 1 0 C1 1.65 1 3.3 1 5 C0.67 5 0.34 5 0 5 C0 3.35 0 1.7 0 0 Z " fill="#002E60" transform="translate(236,247)"/>
<path d="M0 0 C0.33 0 0.66 0 1 0 C1 1.65 1 3.3 1 5 C0.67 5 0.34 5 0 5 C0 3.35 0 1.7 0 0 Z " fill="#00275F" transform="translate(56,247)"/>
<path d="M0 0 C0.33 0 0.66 0 1 0 C1 1.65 1 3.3 1 5 C0.67 5 0.34 5 0 5 C0 3.35 0 1.7 0 0 Z " fill="#002966" transform="translate(54,247)"/>
<path d="M0 0 C0.33 0 0.66 0 1 0 C1 1.65 1 3.3 1 5 C0.67 5 0.34 5 0 5 C0 3.35 0 1.7 0 0 Z " fill="#002F54" transform="translate(65,244)"/>
<path d="M0 0 C0.33 0 0.66 0 1 0 C1 1.65 1 3.3 1 5 C0.67 5 0.34 5 0 5 C0 3.35 0 1.7 0 0 Z " fill="#002D50" transform="translate(63,244)"/>
<path d="M0 0 C0.33 0 0.66 0 1 0 C1 1.65 1 3.3 1 5 C0.67 5 0.34 5 0 5 C0 3.35 0 1.7 0 0 Z " fill="#003363" transform="translate(55,241)"/>
<path d="M0 0 C0.33 0 0.66 0 1 0 C1 1.65 1 3.3 1 5 C0.67 5 0.34 5 0 5 C0 3.35 0 1.7 0 0 Z " fill="#00284D" transform="translate(54,236)"/>
<path d="M0 0 C0.33 0 0.66 0 1 0 C1 1.65 1 3.3 1 5 C0.67 5 0.34 5 0 5 C0 3.35 0 1.7 0 0 Z " fill="#00294F" transform="translate(52,236)"/>
<path d="M0 0 C1.65 0 3.3 0 5 0 C5 0.33 5 0.66 5 1 C3.35 1 1.7 1 0 1 C0 0.67 0 0.34 0 0 Z " fill="#003466" transform="translate(182,236)"/>
<path d="M0 0 C1.65 0 3.3 0 5 0 C5 0.33 5 0.66 5 1 C3.35 1 1.7 1 0 1 C0 0.67 0 0.34 0 0 Z " fill="#001F27" transform="translate(176,233)"/>
<path d="M0 0 C0.33 0 0.66 0 1 0 C1 1.65 1 3.3 1 5 C0.67 5 0.34 5 0 5 C0 3.35 0 1.7 0 0 Z " fill="#00456A" transform="translate(236,229)"/>
<path d="M0 0 C0.33 0 0.66 0 1 0 C1 1.65 1 3.3 1 5 C0.67 5 0.34 5 0 5 C0 3.35 0 1.7 0 0 Z " fill="#002C55" transform="translate(68,226)"/>
<path d="M0 0 C0.33 0 0.66 0 1 0 C1 1.65 1 3.3 1 5 C0.67 5 0.34 5 0 5 C0 3.35 0 1.7 0 0 Z " fill="#002B53" transform="translate(66,226)"/>
<path d="M0 0 C0.33 0 0.66 0 1 0 C1 1.65 1 3.3 1 5 C0.67 5 0.34 5 0 5 C0 3.35 0 1.7 0 0 Z " fill="#00325E" transform="translate(67,220)"/>
<path d="M0 0 C0.33 0 0.66 0 1 0 C1 1.65 1 3.3 1 5 C0.67 5 0.34 5 0 5 C0 3.35 0 1.7 0 0 Z " fill="#00274B" transform="translate(51,218)"/>
<path d="M0 0 C0.33 0 0.66 0 1 0 C1 1.65 1 3.3 1 5 C0.67 5 0.34 5 0 5 C0 3.35 0 1.7 0 0 Z " fill="#002C54" transform="translate(48,212)"/>
<path d="M0 0 C0.33 0 0.66 0 1 0 C1 1.65 1 3.3 1 5 C0.67 5 0.34 5 0 5 C0 3.35 0 1.7 0 0 Z " fill="#002A51" transform="translate(50,212)"/>
<path d="M0 0 C0.33 0 0.66 0 1 0 C1 1.65 1 3.3 1 5 C0.67 5 0.34 5 0 5 C0 3.35 0 1.7 0 0 Z " fill="#003464" transform="translate(71,208)"/>
<path d="M0 0 C0.33 0 0.66 0 1 0 C1 1.65 1 3.3 1 5 C0.67 5 0.34 5 0 5 C0 3.35 0 1.7 0 0 Z " fill="#00305D" transform="translate(69,208)"/>
<path d="M0 0 C0.33 0 0.66 0 1 0 C1 1.65 1 3.3 1 5 C0.67 5 0.34 5 0 5 C0 3.35 0 1.7 0 0 Z " fill="#007C95" transform="translate(482,111)"/>
<path d="M0 0 C1 4 1 4 1 4 Z " fill="#005B65" transform="translate(238,315)"/>
<path d="M0 0 C1 4 1 4 1 4 Z " fill="#002B53" transform="translate(191,316)"/>
<path d="M0 0 C1 4 1 4 1 4 Z " fill="#002D54" transform="translate(189,316)"/>
<path d="M0 0 C1 4 1 4 1 4 Z " fill="#004382" transform="translate(91,314)"/>
<path d="M0 0 C1 4 1 4 1 4 Z " fill="#002D54" transform="translate(188,311)"/>
<path d="M0 0 C1 4 1 4 1 4 Z " fill="#00516A" transform="translate(92,310)"/>
<path d="M0 0 C1 4 1 4 1 4 Z " fill="#003D65" transform="translate(187,306)"/>
<path d="M0 0 C1 4 1 4 1 4 Z " fill="#00566A" transform="translate(25,305)"/>
<path d="M0 0 C1 4 1 4 1 4 Z " fill="#002B52" transform="translate(95,299)"/>
<path d="M0 0 C1 4 1 4 1 4 Z " fill="#002E5A" transform="translate(186,300)"/>
<path d="M0 0 C1 4 1 4 1 4 Z " fill="#005876" transform="translate(233,297)"/>
<path d="M0 0 C1 4 1 4 1 4 Z " fill="#003C6D" transform="translate(22,294)"/>
<path d="M0 0 C1 4 1 4 1 4 Z " fill="#003D6E" transform="translate(187,295)"/>
<path d="M0 0 C1 4 1 4 1 4 Z " fill="#003160" transform="translate(185,295)"/>
<path d="M0 0 C1 4 1 4 1 4 Z " fill="#004F6C" transform="translate(186,291)"/>
<path d="M0 0 C1 4 1 4 1 4 Z " fill="#00324E" transform="translate(19,283)"/>
<path d="M0 0 C1 4 1 4 1 4 Z " fill="#00395A" transform="translate(101,277)"/>
<path d="M0 0 C1 4 1 4 1 4 Z " fill="#005D79" transform="translate(103,270)"/>
<path d="M0 0 C1 4 1 4 1 4 Z " fill="#004A6B" transform="translate(16,272)"/>
<path d="M0 0 C1 4 1 4 1 4 Z " fill="#003F7C" transform="translate(14,265)"/>
<path d="M0 0 C1 4 1 4 1 4 Z " fill="#004163" transform="translate(104,266)"/>
<path d="M0 0 C1 4 1 4 1 4 Z " fill="#004766" transform="translate(13,261)"/>
<path d="M0 0 C1 4 1 4 1 4 Z " fill="#005B74" transform="translate(106,259)"/>
<path d="M0 0 C1 4 1 4 1 4 Z " fill="#003C5F" transform="translate(61,256)"/>
<path d="M0 0 C1 4 1 4 1 4 Z " fill="#00284F" transform="translate(57,254)"/>
<path d="M0 0 C4 1 4 1 4 1 Z " fill="#00315A" transform="translate(181,255)"/>
<path d="M0 0 C1 4 1 4 1 4 Z " fill="#005775" transform="translate(11,254)"/>
<path d="M0 0 C4 1 4 1 4 1 Z " fill="#002C50" transform="translate(181,253)"/>
<path d="M0 0 C1 4 1 4 1 4 Z " fill="#00576E" transform="translate(109,248)"/>
<path d="M0 0 C1 4 1 4 1 4 Z " fill="#003664" transform="translate(64,238)"/>
<path d="M0 0 C1 4 1 4 1 4 Z " fill="#004569" transform="translate(112,237)"/>
<path d="M0 0 C1 4 1 4 1 4 Z " fill="#002445" transform="translate(238,230)"/>
<path d="M0 0 C1 4 1 4 1 4 Z " fill="#003562" transform="translate(65,232)"/>
<path d="M0 0 C1 4 1 4 1 4 Z " fill="#003160" transform="translate(53,230)"/>
<path d="M0 0 C1 4 1 4 1 4 Z " fill="#005A71" transform="translate(5,232)"/>
<path d="M0 0 C1 4 1 4 1 4 Z " fill="#002F6C" transform="translate(115,226)"/>
<path d="M0 0 C1 4 1 4 1 4 Z " fill="#003363" transform="translate(52,224)"/>
<path d="M0 0 C1 4 1 4 1 4 Z " fill="#002D56" transform="translate(2,221)"/>
<path d="M0 0 C1 4 1 4 1 4 Z " fill="#002A59" transform="translate(118,215)"/>
<path d="M0 0 C4 1 4 1 4 1 Z " fill="#00274A" transform="translate(205,206)"/>
<path d="M0 0 C4 1 4 1 4 1 Z " fill="#00284C" transform="translate(205,204)"/>
<path d="" fill="#002142" transform="translate(0,0)"/>
<path d="" fill="#001E3E" transform="translate(0,0)"/>
<path d="" fill="#002249" transform="translate(0,0)"/>
<path d="" fill="#00356A" transform="translate(0,0)"/>
<path d="" fill="#00305F" transform="translate(0,0)"/>
<path d="" fill="#002D51" transform="translate(0,0)"/>
<path d="" fill="#002E54" transform="translate(0,0)"/>
<path d="" fill="#001B38" transform="translate(0,0)"/>
<path d="" fill="#00305E" transform="translate(0,0)"/>
<path d="" fill="#002D58" transform="translate(0,0)"/>
<path d="" fill="#00315B" transform="translate(0,0)"/>
<path d="" fill="#003161" transform="translate(0,0)"/>
<path d="" fill="#00386F" transform="translate(0,0)"/>
<path d="" fill="#002545" transform="translate(0,0)"/>
<path d="" fill="#00274A" transform="translate(0,0)"/>
<path d="" fill="#001B35" transform="translate(0,0)"/>
<path d="" fill="#002A52" transform="translate(0,0)"/>
<path d="" fill="#002951" transform="translate(0,0)"/>
<path d="" fill="#00396A" transform="translate(0,0)"/>
<path d="" fill="#003058" transform="translate(0,0)"/>
<path d="" fill="#00284A" transform="translate(0,0)"/>
<path d="" fill="#00294B" transform="translate(0,0)"/>
<path d="" fill="#003564" transform="translate(0,0)"/>
<path d="" fill="#004076" transform="translate(0,0)"/>
<path d="" fill="#004481" transform="translate(0,0)"/>
<path d="" fill="#002445" transform="translate(0,0)"/>
<path d="" fill="#002344" transform="translate(0,0)"/>
<path d="" fill="#00407B" transform="translate(0,0)"/>
<path d="" fill="#003A71" transform="translate(0,0)"/>
<path d="" fill="#003267" transform="translate(0,0)"/>
<path d="" fill="#005C80" transform="translate(0,0)"/>
<path d="" fill="#002A54" transform="translate(0,0)"/>
<path d="" fill="#002648" transform="translate(0,0)"/>
<path d="" fill="#002444" transform="translate(0,0)"/>
<path d="" fill="#002D54" transform="translate(0,0)"/>
<path d="" fill="#003264" transform="translate(0,0)"/>
<path d="" fill="#00395A" transform="translate(0,0)"/>
<path d="" fill="#002230" transform="translate(0,0)"/>
<path d="" fill="#002436" transform="translate(0,0)"/>
<path d="" fill="#003A67" transform="translate(0,0)"/>
<path d="" fill="#003660" transform="translate(0,0)"/>
<path d="" fill="#003E5B" transform="translate(0,0)"/>
<path d="" fill="#00315B" transform="translate(0,0)"/>
<path d="" fill="#00294D" transform="translate(0,0)"/>
<path d="" fill="#002A4F" transform="translate(0,0)"/>
<path d="" fill="#002D4E" transform="translate(0,0)"/>
<path d="M0 0 C0.99 0.495 0.99 0.495 2 1 C1.01 1.495 1.01 1.495 0 2 C0 1.34 0 0.68 0 0 Z " fill="#001D44" transform="translate(222,272)"/>
<path d="" fill="#00284E" transform="translate(0,0)"/>
<path d="" fill="#00284C" transform="translate(0,0)"/>
<path d="" fill="#002749" transform="translate(0,0)"/>
<path d="" fill="#00294C" transform="translate(0,0)"/>
<path d="" fill="#002648" transform="translate(0,0)"/>
<path d="" fill="#003362" transform="translate(0,0)"/>
<path d="" fill="#002951" transform="translate(0,0)"/>
<path d="" fill="#003363" transform="translate(0,0)"/>
<path d="M0 0 C3 1 3 1 3 1 Z " fill="#006B86" transform="translate(185,254)"/>
<path d="" fill="#00213E" transform="translate(0,0)"/>
<path d="" fill="#002B51" transform="translate(0,0)"/>
<path d="" fill="#00335F" transform="translate(0,0)"/>
<path d="" fill="#003558" transform="translate(0,0)"/>
<path d="" fill="#003F69" transform="translate(0,0)"/>
<path d="" fill="#003166" transform="translate(0,0)"/>
<path d="" fill="#002C55" transform="translate(0,0)"/>
<path d="" fill="#00315F" transform="translate(0,0)"/>
<path d="" fill="#003566" transform="translate(0,0)"/>
<path d="" fill="#00203F" transform="translate(0,0)"/>
<path d="" fill="#00213F" transform="translate(0,0)"/>
<path d="" fill="#002D54" transform="translate(0,0)"/>
<path d="" fill="#002F57" transform="translate(0,0)"/>
<path d="" fill="#003370" transform="translate(0,0)"/>
<path d="" fill="#002C61" transform="translate(0,0)"/>
<path d="" fill="#002951" transform="translate(0,0)"/>
<path d="" fill="#00284F" transform="translate(0,0)"/>
<path d="" fill="#00305A" transform="translate(0,0)"/>
<path d="" fill="#003A6E" transform="translate(0,0)"/>
<path d="" fill="#002143" transform="translate(0,0)"/>
<path d="" fill="#002345" transform="translate(0,0)"/>
<path d="" fill="#00457A" transform="translate(0,0)"/>
<path d="" fill="#006581" transform="translate(0,0)"/>
<path d="" fill="#002A4E" transform="translate(0,0)"/>
<path d="" fill="#002A4E" transform="translate(0,0)"/>
<path d="" fill="#002342" transform="translate(0,0)"/>
<path d="" fill="#002443" transform="translate(0,0)"/>
<path d="" fill="#002F61" transform="translate(0,0)"/>
<path d="" fill="#002648" transform="translate(0,0)"/>
<path d="" fill="#002C56" transform="translate(0,0)"/>
<path d="" fill="#002E5B" transform="translate(0,0)"/>
<path d="" fill="#003163" transform="translate(0,0)"/>
<path d="" fill="#002850" transform="translate(0,0)"/>
<path d="" fill="#002D59" transform="translate(0,0)"/>
<path d="" fill="#002147" transform="translate(0,0)"/>
<path d="M0 0 C3 1 3 1 3 1 Z " fill="#002C48" transform="translate(210,207)"/>
<path d="M0 0 C3 1 3 1 3 1 Z " fill="#002540" transform="translate(210,205)"/>
<path d="" fill="#004455" transform="translate(0,0)"/>
<path d="" fill="#005474" transform="translate(0,0)"/>
<path d="" fill="#002646" transform="translate(0,0)"/>
<path d="" fill="#00284C" transform="translate(0,0)"/>
<path d="" fill="#003E66" transform="translate(0,0)"/>
<path d="" fill="#003B64" transform="translate(0,0)"/>
<path d="" fill="#002340" transform="translate(0,0)"/>
<path d="" fill="#003442" transform="translate(0,0)"/>
<path d="" fill="#005F9A" transform="translate(0,0)"/>
<path d="" fill="#00274B" transform="translate(0,0)"/>
<path d="" fill="#002446" transform="translate(0,0)"/>
<path d="" fill="#00203F" transform="translate(0,0)"/>
<path d="" fill="#004B7C" transform="translate(0,0)"/>
<path d="" fill="#002343" transform="translate(0,0)"/>
<path d="" fill="#002456" transform="translate(0,0)"/>
<path d="" fill="#002351" transform="translate(0,0)"/>
<path d="" fill="#00213E" transform="translate(0,0)"/>
<path d="" fill="#002745" transform="translate(0,0)"/>
<path d="" fill="#003766" transform="translate(0,0)"/>
<path d="" fill="#002648" transform="translate(0,0)"/>
<path d="" fill="#002D57" transform="translate(0,0)"/>
<path d="" fill="#00357F" transform="translate(0,0)"/>
<path d="" fill="#002970" transform="translate(0,0)"/>
<path d="" fill="#001E39" transform="translate(0,0)"/>
<path d="" fill="#002F5A" transform="translate(0,0)"/>
<path d="" fill="#002950" transform="translate(0,0)"/>
<path d="" fill="#00264B" transform="translate(0,0)"/>
<path d="" fill="#001F2E" transform="translate(0,0)"/>
<path d="" fill="#001D3A" transform="translate(0,0)"/>
<path d="" fill="#003A74" transform="translate(0,0)"/>
<path d="" fill="#008486" transform="translate(0,0)"/>
<path d="" fill="#00273D" transform="translate(0,0)"/>
<path d="" fill="#002A47" transform="translate(0,0)"/>
<path d="" fill="#00293F" transform="translate(0,0)"/>
<path d="" fill="#002A40" transform="translate(0,0)"/>
<path d="" fill="#004D8A" transform="translate(0,0)"/>
<path d="" fill="#003972" transform="translate(0,0)"/>
<path d="" fill="#000F2D" transform="translate(0,0)"/>
<path d="" fill="#00374D" transform="translate(0,0)"/>
<path d="" fill="#003B55" transform="translate(0,0)"/>
<path d="" fill="#003764" transform="translate(0,0)"/>
<path d="" fill="#003152" transform="translate(0,0)"/>
<path d="" fill="#00284C" transform="translate(0,0)"/>
<path d="" fill="#002647" transform="translate(0,0)"/>
<path d="" fill="#00263F" transform="translate(0,0)"/>
<path d="" fill="#002034" transform="translate(0,0)"/>
<path d="" fill="#002136" transform="translate(0,0)"/>
<path d="" fill="#001F47" transform="translate(0,0)"/>
<path d="" fill="#002C56" transform="translate(0,0)"/>
<path d="" fill="#00242F" transform="translate(0,0)"/>
<path d="" fill="#003A69" transform="translate(0,0)"/>
<path d="M0 0 C2 1 2 1 2 1 Z " fill="#001F44" transform="translate(220,271)"/>
<path d="M0 0 C2 1 2 1 2 1 Z " fill="#005085" transform="translate(222,270)"/>
<path d="" fill="#001A43" transform="translate(0,0)"/>
<path d="" fill="#003E78" transform="translate(0,0)"/>
<path d="" fill="#002545" transform="translate(0,0)"/>
<path d="" fill="#0089A3" transform="translate(0,0)"/>
<path d="" fill="#003669" transform="translate(0,0)"/>
<path d="" fill="#00274B" transform="translate(0,0)"/>
<path d="" fill="#002D54" transform="translate(0,0)"/>
<path d="" fill="#003668" transform="translate(0,0)"/>
<path d="" fill="#003D79" transform="translate(0,0)"/>
<path d="" fill="#00326D" transform="translate(0,0)"/>
<path d="" fill="#00305B" transform="translate(0,0)"/>
<path d="M0 0 C2 1 2 1 2 1 Z " fill="#004F7F" transform="translate(188,253)"/>
<path d="M0 0 C2 1 2 1 2 1 Z " fill="#003155" transform="translate(186,252)"/>
<path d="" fill="#005597" transform="translate(0,0)"/>
<path d="" fill="#00305C" transform="translate(0,0)"/>
<path d="" fill="#005291" transform="translate(0,0)"/>
<path d="" fill="#00203E" transform="translate(0,0)"/>
<path d="" fill="#004C93" transform="translate(0,0)"/>
<path d="" fill="#003B71" transform="translate(0,0)"/>
<path d="" fill="#004F95" transform="translate(0,0)"/>
<path d="" fill="#006D98" transform="translate(0,0)"/>
<path d="" fill="#009098" transform="translate(0,0)"/>
<path d="" fill="#00294D" transform="translate(0,0)"/>
<path d="M0 0 C2 1 2 1 2 1 Z " fill="#004389" transform="translate(188,237)"/>
<path d="" fill="#00263E" transform="translate(0,0)"/>
<path d="" fill="#00253E" transform="translate(0,0)"/>
<path d="" fill="#003B6E" transform="translate(0,0)"/>
<path d="" fill="#004A88" transform="translate(0,0)"/>
<path d="" fill="#00305A" transform="translate(0,0)"/>
<path d="" fill="#001A33" transform="translate(0,0)"/>
<path d="" fill="#001E38" transform="translate(0,0)"/>
<path d="" fill="#002F61" transform="translate(0,0)"/>
<path d="" fill="#00294E" transform="translate(0,0)"/>
<path d="" fill="#003261" transform="translate(0,0)"/>
<path d="" fill="#006D7F" transform="translate(0,0)"/>
<path d="" fill="#007F7F" transform="translate(0,0)"/>
<path d="" fill="#007F7F" transform="translate(0,0)"/>
<path d="" fill="#00457F" transform="translate(0,0)"/>
<path d="" fill="#002E5A" transform="translate(0,0)"/>
<path d="" fill="#00376A" transform="translate(0,0)"/>
<path d="" fill="#001E3D" transform="translate(0,0)"/>
<path d="" fill="#0068A5" transform="translate(0,0)"/>
<path d="" fill="#002F59" transform="translate(0,0)"/>
<path d="" fill="#00C1DC" transform="translate(0,0)"/>
<path d="" fill="#00AABE" transform="translate(0,0)"/>
<path d="" fill="#008182" transform="translate(0,0)"/>
<path d="" fill="#008E95" transform="translate(0,0)"/>
<path d="" fill="#00274A" transform="translate(0,0)"/>
<path d="" fill="#00284B" transform="translate(0,0)"/>
<path d="" fill="#00887F" transform="translate(0,0)"/>
<path d="" fill="#007F7F" transform="translate(0,0)"/>
<path d="" fill="#007F7F" transform="translate(0,0)"/>
<path d="" fill="#007A7F" transform="translate(0,0)"/>
<path d="" fill="#002571" transform="translate(0,0)"/>
<path d="" fill="#00287F" transform="translate(0,0)"/>
<path d="" fill="#00939E" transform="translate(0,0)"/>
<path d="" fill="#0084BD" transform="translate(0,0)"/>
<path d="" fill="#00847F" transform="translate(0,0)"/>
<path d="M0 0 C2 1 2 1 2 1 Z " fill="#00283C" transform="translate(225,214)"/>
<path d="" fill="#00917F" transform="translate(0,0)"/>
<path d="" fill="#009D7F" transform="translate(0,0)"/>
<path d="" fill="#002242" transform="translate(0,0)"/>
<path d="" fill="#008686" transform="translate(0,0)"/>
<path d="" fill="#007F7F" transform="translate(0,0)"/>
<path d="" fill="#00457F" transform="translate(0,0)"/>
<path d="" fill="#001F50" transform="translate(0,0)"/>
<path d="" fill="#001D59" transform="translate(0,0)"/>
<path d="M0 0 C2 1 2 1 2 1 Z " fill="#008B95" transform="translate(221,211)"/>
<path d="" fill="#004456" transform="translate(0,0)"/>
<path d="M0 0 C2 1 2 1 2 1 Z " fill="#003667" transform="translate(219,210)"/>
<path d="" fill="#006691" transform="translate(0,0)"/>
<path d="" fill="#00C0B8" transform="translate(0,0)"/>
<path d="M0 0 C2 1 2 1 2 1 Z " fill="#002C55" transform="translate(219,208)"/>
<path d="" fill="#00B0C0" transform="translate(0,0)"/>
<path d="" fill="#0086A3" transform="translate(0,0)"/>
<path d="M0 0 C2 1 2 1 2 1 Z " fill="#00386D" transform="translate(217,207)"/>
<path d="" fill="#0081B6" transform="translate(0,0)"/>
<path d="" fill="#007F7F" transform="translate(0,0)"/>
<path d="" fill="#007F7F" transform="translate(0,0)"/>
<path d="M0 0 C2 1 2 1 2 1 Z " fill="#001C38" transform="translate(214,206)"/>
<path d="" fill="#007F7F" transform="translate(0,0)"/>
<path d="" fill="#007F7F" transform="translate(0,0)"/>
<path d="" fill="#007F7F" transform="translate(0,0)"/>
<path d="" fill="#006E7F" transform="translate(0,0)"/>
<path d="" fill="#00B3BB" transform="translate(0,0)"/>
<path d="" fill="#00A6B8" transform="translate(0,0)"/>
<path d="" fill="#006E7F" transform="translate(0,0)"/>
<path d="" fill="#007B7F" transform="translate(0,0)"/>
<path d="" fill="#00667F" transform="translate(0,0)"/>
<path d="" fill="#005E7F" transform="translate(0,0)"/>
<path d="" fill="#00737F" transform="translate(0,0)"/>
<path d="" fill="#00C47F" transform="translate(0,0)"/>
<path d="" fill="#00AEC3" transform="translate(0,0)"/>
<path d="" fill="#007F7F" transform="translate(0,0)"/>
<path d="" fill="#008D8E" transform="translate(0,0)"/>
<path d="" fill="#007F7F" transform="translate(0,0)"/>
<path d="" fill="#007F7F" transform="translate(0,0)"/>
<path d="" fill="#007B7F" transform="translate(0,0)"/>
<path d="" fill="#00838E" transform="translate(0,0)"/>
<path d="" fill="#00817F" transform="translate(0,0)"/>
<path d="" fill="#008CB6" transform="translate(0,0)"/>
<path d="" fill="#00978E" transform="translate(0,0)"/>
<path d="" fill="#00807F" transform="translate(0,0)"/>
<path d="" fill="#007F7F" transform="translate(0,0)"/>
<path d="" fill="#00427F" transform="translate(0,0)"/>
<path d="" fill="#004152" transform="translate(0,0)"/>
<path d="" fill="#00BCC9" transform="translate(0,0)"/>
<path d="" fill="#00A4BF" transform="translate(0,0)"/>
<path d="" fill="#007F7F" transform="translate(0,0)"/>
<path d="" fill="#007F8F" transform="translate(0,0)"/>
<path d="" fill="#007F7F" transform="translate(0,0)"/>
<path d="" fill="#007F7F" transform="translate(0,0)"/>
<path d="" fill="#007D7F" transform="translate(0,0)"/>
<path d="" fill="#007F7F" transform="translate(0,0)"/>
<path d="" fill="#00AABE" transform="translate(0,0)"/>
<path d="" fill="#00757F" transform="translate(0,0)"/>
<path d="" fill="#00B3C8" transform="translate(0,0)"/>
<path d="" fill="#008081" transform="translate(0,0)"/>
<path d="" fill="#005F7F" transform="translate(0,0)"/>
<path d="" fill="#005F7F" transform="translate(0,0)"/>
<path d="" fill="#005F7F" transform="translate(0,0)"/>
<path d="" fill="#00617F" transform="translate(0,0)"/>
<path d="" fill="#007F7F" transform="translate(0,0)"/>
<path d="" fill="#007F7F" transform="translate(0,0)"/>
<path d="" fill="#00ACB9" transform="translate(0,0)"/>
<path d="" fill="#00777F" transform="translate(0,0)"/>
<path d="" fill="#00727F" transform="translate(0,0)"/>
<path d="" fill="#00A0AA" transform="translate(0,0)"/>
<path d="" fill="#00817F" transform="translate(0,0)"/>
<path d="" fill="#006C7F" transform="translate(0,0)"/>
<path d="" fill="#00929E" transform="translate(0,0)"/>
<path d="" fill="#007F7F" transform="translate(0,0)"/>
<path d="" fill="#007F7F" transform="translate(0,0)"/>
<path d="" fill="#007C7F" transform="translate(0,0)"/>
<path d="" fill="#007F7F" transform="translate(0,0)"/>
<path d="" fill="#007F7F" transform="translate(0,0)"/>
<path d="" fill="#006B7F" transform="translate(0,0)"/>
<path d="" fill="#00657F" transform="translate(0,0)"/>
<path d="" fill="#00677F" transform="translate(0,0)"/>
<path d="" fill="#00A7BE" transform="translate(0,0)"/>
<path d="" fill="#007F7F" transform="translate(0,0)"/>
<path d="" fill="#007F7F" transform="translate(0,0)"/>
<path d="" fill="#00AECA" transform="translate(0,0)"/>
<path d="" fill="#00848A" transform="translate(0,0)"/>
<path d="" fill="#004D6B" transform="translate(0,0)"/>
<path d="" fill="#00A3AA" transform="translate(0,0)"/>
<path d="" fill="#007F7F" transform="translate(0,0)"/>
<path d="" fill="#007F7F" transform="translate(0,0)"/>
<path d="" fill="#00707F" transform="translate(0,0)"/>
<path d="" fill="#007F7F" transform="translate(0,0)"/>
<path d="" fill="#008C90" transform="translate(0,0)"/>
<path d="" fill="#007F7F" transform="translate(0,0)"/>
<path d="" fill="#007F7F" transform="translate(0,0)"/>
<path d="" fill="#007F7F" transform="translate(0,0)"/>
<path d="" fill="#007F7F" transform="translate(0,0)"/>
<path d="" fill="#007F7F" transform="translate(0,0)"/>
<path d="" fill="#00A9C4" transform="translate(0,0)"/>
<path d="" fill="#0096A0" transform="translate(0,0)"/>
<path d="" fill="#005C7F" transform="translate(0,0)"/>
<path d="" fill="#007F7F" transform="translate(0,0)"/>
<path d="" fill="#007F7F" transform="translate(0,0)"/>
<path d="" fill="#007F7F" transform="translate(0,0)"/>
<path d="" fill="#005875" transform="translate(0,0)"/>
<path d="" fill="#007F7F" transform="translate(0,0)"/>
<path d="" fill="#007F7F" transform="translate(0,0)"/>
<path d="" fill="#007F7F" transform="translate(0,0)"/>
<path d="" fill="#008E95" transform="translate(0,0)"/>
<path d="" fill="#009AA4" transform="translate(0,0)"/>
<path d="" fill="#007F7F" transform="translate(0,0)"/>
<path d="" fill="#007D7F" transform="translate(0,0)"/>
<path d="" fill="#008C7F" transform="translate(0,0)"/>
<path d="" fill="#00A8B9" transform="translate(0,0)"/>
<path d="" fill="#007D7F" transform="translate(0,0)"/>
<path d="" fill="#00B1C9" transform="translate(0,0)"/>
<path d="" fill="#005E7F" transform="translate(0,0)"/>
<path d="" fill="#00607F" transform="translate(0,0)"/>
<path d="" fill="#00657F" transform="translate(0,0)"/>
<path d="" fill="#00647F" transform="translate(0,0)"/>
<path d="" fill="#00647F" transform="translate(0,0)"/>
<path d="" fill="#007F7F" transform="translate(0,0)"/>
<path d="" fill="#007F7F" transform="translate(0,0)"/>
<path d="" fill="#00AFBF" transform="translate(0,0)"/>
<path d="" fill="#00767F" transform="translate(0,0)"/>
<path d="" fill="#006E7F" transform="translate(0,0)"/>
<path d="" fill="#00A5A8" transform="translate(0,0)"/>
<path d="" fill="#00847F" transform="translate(0,0)"/>
<path d="" fill="#007B7F" transform="translate(0,0)"/>
<path d="" fill="#00949B" transform="translate(0,0)"/>
<path d="" fill="#007F7F" transform="translate(0,0)"/>
<path d="" fill="#007F7F" transform="translate(0,0)"/>
<path d="" fill="#007F7F" transform="translate(0,0)"/>
<path d="" fill="#007F7F" transform="translate(0,0)"/>
<path d="" fill="#007F7F" transform="translate(0,0)"/>
<path d="" fill="#00727F" transform="translate(0,0)"/>
<path d="" fill="#00767F" transform="translate(0,0)"/>
<path d="" fill="#007F80" transform="translate(0,0)"/>
<path d="" fill="#00AEC6" transform="translate(0,0)"/>
<path d="" fill="#007F7F" transform="translate(0,0)"/>
<path d="" fill="#007F7F" transform="translate(0,0)"/>
<path d="" fill="#00B3C4" transform="translate(0,0)"/>
<path d="" fill="#007F7F" transform="translate(0,0)"/>
<path d="" fill="#007F7F" transform="translate(0,0)"/>
<path d="" fill="#005577" transform="translate(0,0)"/>
<path d="" fill="#00A4BB" transform="translate(0,0)"/>
<path d="" fill="#007F7F" transform="translate(0,0)"/>
<path d="" fill="#007F7F" transform="translate(0,0)"/>
<path d="" fill="#00727F" transform="translate(0,0)"/>
<path d="" fill="#007F7F" transform="translate(0,0)"/>
<path d="" fill="#008E93" transform="translate(0,0)"/>
<path d="" fill="#007F7F" transform="translate(0,0)"/>
<path d="" fill="#007F7F" transform="translate(0,0)"/>
<path d="" fill="#008194" transform="translate(0,0)"/>
<path d="" fill="#007F7F" transform="translate(0,0)"/>
<path d="" fill="#007F7F" transform="translate(0,0)"/>
<path d="" fill="#00AAB1" transform="translate(0,0)"/>
<path d="" fill="#0097A8" transform="translate(0,0)"/>
<path d="" fill="#005B7F" transform="translate(0,0)"/>
<path d="" fill="#007F7F" transform="translate(0,0)"/>
<path d="" fill="#007F7F" transform="translate(0,0)"/>
<path d="" fill="#007F7F" transform="translate(0,0)"/>
<path d="" fill="#005F7F" transform="translate(0,0)"/>
<path d="" fill="#007F7F" transform="translate(0,0)"/>
<path d="" fill="#007F7F" transform="translate(0,0)"/>
<path d="" fill="#00577B" transform="translate(0,0)"/>
<path d="" fill="#005F7F" transform="translate(0,0)"/>
<path d="" fill="#007F7F" transform="translate(0,0)"/>
<path d="" fill="#007F7F" transform="translate(0,0)"/>
<path d="" fill="#007F7F" transform="translate(0,0)"/>
<path d="" fill="#007F7F" transform="translate(0,0)"/>
<path d="" fill="#007F7F" transform="translate(0,0)"/>
<path d="" fill="#00B4CC" transform="translate(0,0)"/>
<path d="" fill="#00929C" transform="translate(0,0)"/>
<path d="" fill="#008E8A" transform="translate(0,0)"/>
<path d="" fill="#007F7F" transform="translate(0,0)"/>
<path d="" fill="#007F7F" transform="translate(0,0)"/>
<path d="" fill="#007F7F" transform="translate(0,0)"/>
<path d="" fill="#008D92" transform="translate(0,0)"/>
<path d="" fill="#00757F" transform="translate(0,0)"/>
<path d="" fill="#005373" transform="translate(0,0)"/>
<path d="" fill="#00A0B3" transform="translate(0,0)"/>
<path d="" fill="#007F7F" transform="translate(0,0)"/>
<path d="" fill="#007F7F" transform="translate(0,0)"/>
<path d="" fill="#007F7F" transform="translate(0,0)"/>
<path d="" fill="#007F7F" transform="translate(0,0)"/>
<path d="" fill="#00B3C9" transform="translate(0,0)"/>
<path d="" fill="#007F7F" transform="translate(0,0)"/>
<path d="" fill="#00ACC0" transform="translate(0,0)"/>
<path d="" fill="#00717F" transform="translate(0,0)"/>
<path d="" fill="#00777F" transform="translate(0,0)"/>
<path d="" fill="#007F7F" transform="translate(0,0)"/>
<path d="" fill="#007F7F" transform="translate(0,0)"/>
<path d="" fill="#007D7F" transform="translate(0,0)"/>
<path d="" fill="#006D7F" transform="translate(0,0)"/>
<path d="" fill="#009CA4" transform="translate(0,0)"/>
<path d="" fill="#007F7F" transform="translate(0,0)"/>
<path d="" fill="#007F7F" transform="translate(0,0)"/>
<path d="" fill="#00737F" transform="translate(0,0)"/>
<path d="" fill="#006E7F" transform="translate(0,0)"/>
<path d="" fill="#00A6B4" transform="translate(0,0)"/>
<path d="" fill="#00847F" transform="translate(0,0)"/>
<path d="" fill="#00B1C6" transform="translate(0,0)"/>
<path d="" fill="#007F7F" transform="translate(0,0)"/>
<path d="" fill="#007F7F" transform="translate(0,0)"/>
<path d="" fill="#006A7F" transform="translate(0,0)"/>
<path d="" fill="#006D7F" transform="translate(0,0)"/>
<path d="" fill="#00607F" transform="translate(0,0)"/>
<path d="" fill="#00757F" transform="translate(0,0)"/>
<path d="" fill="#00B5CD" transform="translate(0,0)"/>
<path d="" fill="#006177" transform="translate(0,0)"/>
<path d="" fill="#00627E" transform="translate(0,0)"/>
<path d="" fill="#00777F" transform="translate(0,0)"/>
<path d="" fill="#00747F" transform="translate(0,0)"/>
<path d="" fill="#008C8F" transform="translate(0,0)"/>
<path d="" fill="#00A5B1" transform="translate(0,0)"/>
<path d="" fill="#00A5AE" transform="translate(0,0)"/>
<path d="" fill="#007F7F" transform="translate(0,0)"/>
<path d="" fill="#008E95" transform="translate(0,0)"/>
<path d="" fill="#007F7F" transform="translate(0,0)"/>
<path d="" fill="#007F7F" transform="translate(0,0)"/>
<path d="" fill="#005578" transform="translate(0,0)"/>
<path d="" fill="#00607F" transform="translate(0,0)"/>
<path d="" fill="#007F7F" transform="translate(0,0)"/>
<path d="" fill="#007F7F" transform="translate(0,0)"/>
<path d="" fill="#007F7F" transform="translate(0,0)"/>
<path d="" fill="#007F7F" transform="translate(0,0)"/>
<path d="" fill="#007F7F" transform="translate(0,0)"/>
<path d="" fill="#00A8C0" transform="translate(0,0)"/>
<path d="" fill="#00959F" transform="translate(0,0)"/>
<path d="" fill="#008983" transform="translate(0,0)"/>
<path d="" fill="#007F7F" transform="translate(0,0)"/>
<path d="" fill="#007F7F" transform="translate(0,0)"/>
<path d="" fill="#007F7F" transform="translate(0,0)"/>
<path d="" fill="#008C91" transform="translate(0,0)"/>
<path d="" fill="#006C7F" transform="translate(0,0)"/>
<path d="" fill="#00506D" transform="translate(0,0)"/>
<path d="" fill="#009BAD" transform="translate(0,0)"/>
<path d="" fill="#007F7F" transform="translate(0,0)"/>
<path d="" fill="#007F7F" transform="translate(0,0)"/>
<path d="" fill="#007F7F" transform="translate(0,0)"/>
<path d="" fill="#007F7F" transform="translate(0,0)"/>
<path d="" fill="#00B2C8" transform="translate(0,0)"/>
<path d="" fill="#00837F" transform="translate(0,0)"/>
<path d="" fill="#00A8BD" transform="translate(0,0)"/>
<path d="" fill="#006B7F" transform="translate(0,0)"/>
<path d="" fill="#00707F" transform="translate(0,0)"/>
<path d="" fill="#007F7F" transform="translate(0,0)"/>
<path d="" fill="#007F7F" transform="translate(0,0)"/>
<path d="" fill="#00797F" transform="translate(0,0)"/>
<path d="" fill="#006D7F" transform="translate(0,0)"/>
<path d="" fill="#009BA2" transform="translate(0,0)"/>
<path d="" fill="#007F7F" transform="translate(0,0)"/>
<path d="" fill="#007F7F" transform="translate(0,0)"/>
<path d="" fill="#00747F" transform="translate(0,0)"/>
<path d="" fill="#00717F" transform="translate(0,0)"/>
<path d="" fill="#00A9B7" transform="translate(0,0)"/>
<path d="" fill="#00827F" transform="translate(0,0)"/>
<path d="" fill="#00AEC3" transform="translate(0,0)"/>
<path d="" fill="#007F7F" transform="translate(0,0)"/>
<path d="" fill="#007F7F" transform="translate(0,0)"/>
<path d="" fill="#006A7F" transform="translate(0,0)"/>
<path d="" fill="#00627F" transform="translate(0,0)"/>
<path d="" fill="#00B5CB" transform="translate(0,0)"/>
<path d="" fill="#008383" transform="translate(0,0)"/>
<path d="" fill="#00677F" transform="translate(0,0)"/>
<path d="" fill="#00677F" transform="translate(0,0)"/>
<path d="" fill="#007F7F" transform="translate(0,0)"/>
<path d="" fill="#00B1C8" transform="translate(0,0)"/>
<path d="" fill="#00A9B9" transform="translate(0,0)"/>
<path d="" fill="#00747F" transform="translate(0,0)"/>
<path d="" fill="#00747F" transform="translate(0,0)"/>
<path d="" fill="#007C7F" transform="translate(0,0)"/>
<path d="" fill="#007F7F" transform="translate(0,0)"/>
<path d="" fill="#007F7F" transform="translate(0,0)"/>
<path d="" fill="#007F7F" transform="translate(0,0)"/>
<path d="" fill="#007F7F" transform="translate(0,0)"/>
<path d="" fill="#00ADC2" transform="translate(0,0)"/>
<path d="" fill="#00B5CC" transform="translate(0,0)"/>
<path d="" fill="#003446" transform="translate(0,0)"/>
<path d="" fill="#004B68" transform="translate(0,0)"/>
<path d="" fill="#007F7F" transform="translate(0,0)"/>
<path d="" fill="#007F7F" transform="translate(0,0)"/>
<path d="" fill="#008E90" transform="translate(0,0)"/>
<path d="" fill="#00989F" transform="translate(0,0)"/>
<path d="" fill="#007F7F" transform="translate(0,0)"/>
<path d="" fill="#008988" transform="translate(0,0)"/>
<path d="" fill="#00707F" transform="translate(0,0)"/>
<path d="" fill="#007F7F" transform="translate(0,0)"/>
<path d="" fill="#007F7F" transform="translate(0,0)"/>
<path d="" fill="#007F7F" transform="translate(0,0)"/>
<path d="" fill="#007F7F" transform="translate(0,0)"/>
<path d="" fill="#00848B" transform="translate(0,0)"/>
<path d="" fill="#00AEC0" transform="translate(0,0)"/>
<path d="" fill="#00C2DF" transform="translate(0,0)"/>
<path d="" fill="#006C7F" transform="translate(0,0)"/>
<path d="" fill="#00777F" transform="translate(0,0)"/>
<path d="" fill="#00747F" transform="translate(0,0)"/>
<path d="" fill="#006D7F" transform="translate(0,0)"/>
<path d="" fill="#00757F" transform="translate(0,0)"/>
<path d="" fill="#007F7F" transform="translate(0,0)"/>
<path d="" fill="#00A6B4" transform="translate(0,0)"/>
<path d="" fill="#00B1CA" transform="translate(0,0)"/>
<path d="" fill="#00797F" transform="translate(0,0)"/>
<path d="" fill="#007F7F" transform="translate(0,0)"/>
<path d="" fill="#007F7F" transform="translate(0,0)"/>
<path d="" fill="#007F7F" transform="translate(0,0)"/>
<path d="" fill="#007F7F" transform="translate(0,0)"/>
<path d="" fill="#007F7F" transform="translate(0,0)"/>
<path d="" fill="#007F7F" transform="translate(0,0)"/>
<path d="" fill="#00B3C9" transform="translate(0,0)"/>
<path d="" fill="#00BBD2" transform="translate(0,0)"/>
<path d="" fill="#00394D" transform="translate(0,0)"/>
<path d="" fill="#004D72" transform="translate(0,0)"/>
<path d="" fill="#008482" transform="translate(0,0)"/>
<path d="" fill="#007F7F" transform="translate(0,0)"/>
<path d="" fill="#00919A" transform="translate(0,0)"/>
<path d="" fill="#009CAA" transform="translate(0,0)"/>
<path d="" fill="#007F7F" transform="translate(0,0)"/>
<path d="" fill="#006C7F" transform="translate(0,0)"/>
<path d="" fill="#007F7F" transform="translate(0,0)"/>
<path d="" fill="#007F7F" transform="translate(0,0)"/>
<path d="" fill="#007F7F" transform="translate(0,0)"/>
<path d="" fill="#007F7F" transform="translate(0,0)"/>
<path d="" fill="#00888B" transform="translate(0,0)"/>
<path d="" fill="#00A9BA" transform="translate(0,0)"/>
<path d="" fill="#00737F" transform="translate(0,0)"/>
<path d="" fill="#007F7F" transform="translate(0,0)"/>
<path d="" fill="#00899A" transform="translate(0,0)"/>
<path d="" fill="#004780" transform="translate(0,0)"/>
<path d="" fill="#00396A" transform="translate(0,0)"/>
<path d="" fill="#003A70" transform="translate(0,0)"/>
<path d="" fill="#001830" transform="translate(0,0)"/>
<path d="" fill="#00152B" transform="translate(0,0)"/>
<path d="" fill="#00172B" transform="translate(0,0)"/>
<path d="" fill="#00417E" transform="translate(0,0)"/>
<path d="" fill="#00376B" transform="translate(0,0)"/>
<path d="" fill="#003968" transform="translate(0,0)"/>
<path d="" fill="#002148" transform="translate(0,0)"/>
<path d="" fill="#002248" transform="translate(0,0)"/>
<path d="" fill="#001E00" transform="translate(0,0)"/>
<path d="" fill="#005290" transform="translate(0,0)"/>
<path d="" fill="#002B46" transform="translate(0,0)"/>
<path d="" fill="#002745" transform="translate(0,0)"/>
<path d="" fill="#002957" transform="translate(0,0)"/>
<path d="" fill="#002959" transform="translate(0,0)"/>
<path d="" fill="#003D54" transform="translate(0,0)"/>
<path d="" fill="#003262" transform="translate(0,0)"/>
<path d="" fill="#003465" transform="translate(0,0)"/>
<path d="" fill="#000300" transform="translate(0,0)"/>
<path d="" fill="#001955" transform="translate(0,0)"/>
<path d="" fill="#000000" transform="translate(0,0)"/>
<path d="" fill="#00355C" transform="translate(0,0)"/>
<path d="" fill="#000000" transform="translate(0,0)"/>
<path d="" fill="#00447E" transform="translate(0,0)"/>
<path d="" fill="#001600" transform="translate(0,0)"/>
<path d="" fill="#001B00" transform="translate(0,0)"/>
<path d="" fill="#000000" transform="translate(0,0)"/>
<path d="" fill="#007186" transform="translate(0,0)"/>
<path d="" fill="#0094B2" transform="translate(0,0)"/>
<path d="" fill="#002A2A" transform="translate(0,0)"/>
<path d="" fill="#00309D" transform="translate(0,0)"/>
<path d="" fill="#001D15" transform="translate(0,0)"/>
<path d="" fill="#001329" transform="translate(0,0)"/>
<path d="" fill="#000A2B" transform="translate(0,0)"/>
<path d="" fill="#002672" transform="translate(0,0)"/>
<path d="" fill="#001B00" transform="translate(0,0)"/>
<path d="" fill="#004D72" transform="translate(0,0)"/>
<path d="" fill="#00296E" transform="translate(0,0)"/>
<path d="" fill="#001234" transform="translate(0,0)"/>
<path d="" fill="#000E39" transform="translate(0,0)"/>
<path d="" fill="#003284" transform="translate(0,0)"/>
<path d="" fill="#000400" transform="translate(0,0)"/>
<path d="" fill="#00265F" transform="translate(0,0)"/>
<path d="" fill="#00375F" transform="translate(0,0)"/>
<path d="" fill="#003E00" transform="translate(0,0)"/>
<path d="" fill="#000000" transform="translate(0,0)"/>
<path d="" fill="#000000" transform="translate(0,0)"/>
<path d="" fill="#002A69" transform="translate(0,0)"/>
<path d="" fill="#002167" transform="translate(0,0)"/>
<path d="" fill="#002F50" transform="translate(0,0)"/>
<path d="" fill="#003366" transform="translate(0,0)"/>
<path d="" fill="#005493" transform="translate(0,0)"/>
<path d="" fill="#004E94" transform="translate(0,0)"/>
<path d="" fill="#00022D" transform="translate(0,0)"/>
<path d="" fill="#002C4C" transform="translate(0,0)"/>
<path d="" fill="#008ADD" transform="translate(0,0)"/>
<path d="" fill="#00326E" transform="translate(0,0)"/>
<path d="" fill="#001529" transform="translate(0,0)"/>
<path d="" fill="#001B25" transform="translate(0,0)"/>
<path d="" fill="#00396B" transform="translate(0,0)"/>
<path d="" fill="#003766" transform="translate(0,0)"/>
<path d="" fill="#00396A" transform="translate(0,0)"/>
<path d="" fill="#000B0D" transform="translate(0,0)"/>
<path d="" fill="#00060A" transform="translate(0,0)"/>
<path d="" fill="#000E05" transform="translate(0,0)"/>
<path d="" fill="#003667" transform="translate(0,0)"/>
<path d="" fill="#003462" transform="translate(0,0)"/>
<path d="" fill="#000000" transform="translate(0,0)"/>
<path d="" fill="#003464" transform="translate(0,0)"/>
<path d="" fill="#000000" transform="translate(0,0)"/>
<path d="" fill="#00B1C2" transform="translate(0,0)"/>
<path d="" fill="#007AA0" transform="translate(0,0)"/>
<path d="" fill="#00EBFF" transform="translate(0,0)"/>
<path d="" fill="#000700" transform="translate(0,0)"/>
<path d="" fill="#00D6FF" transform="translate(0,0)"/>
<path d="" fill="#008AC3" transform="translate(0,0)"/>
<path d="" fill="#008DCA" transform="translate(0,0)"/>
<path d="" fill="#00315E" transform="translate(0,0)"/>
<path d="" fill="#002F59" transform="translate(0,0)"/>
<path d="" fill="#002142" transform="translate(0,0)"/>
<path d="" fill="#007FAF" transform="translate(0,0)"/>
<path d="" fill="#007CAC" transform="translate(0,0)"/>
<path d="" fill="#007BAE" transform="translate(0,0)"/>
<path d="" fill="#003057" transform="translate(0,0)"/>
<path d="" fill="#002F52" transform="translate(0,0)"/>
<path d="" fill="#001036" transform="translate(0,0)"/>
<path d="" fill="#001841" transform="translate(0,0)"/>
<path d="" fill="#004D73" transform="translate(0,0)"/>
<path d="" fill="#000300" transform="translate(0,0)"/>
<path d="" fill="#00E7FF" transform="translate(0,0)"/>
<path d="" fill="#004A8E" transform="translate(0,0)"/>
<path d="" fill="#00367F" transform="translate(0,0)"/>
<path d="" fill="#00CCFF" transform="translate(0,0)"/>
<path d="" fill="#00407C" transform="translate(0,0)"/>
<path d="" fill="#0062B4" transform="translate(0,0)"/>
<path d="" fill="#00B3EA" transform="translate(0,0)"/>
<path d="" fill="#00AEFB" transform="translate(0,0)"/>
<path d="" fill="#00283B" transform="translate(0,0)"/>
<path d="" fill="#003870" transform="translate(0,0)"/>
<path d="" fill="#004584" transform="translate(0,0)"/>
<path d="" fill="#008CCA" transform="translate(0,0)"/>
<path d="" fill="#008ECE" transform="translate(0,0)"/>
<path d="" fill="#00488C" transform="translate(0,0)"/>
<path d="" fill="#005DCF" transform="translate(0,0)"/>
<path d="" fill="#000E5F" transform="translate(0,0)"/>
<path d="" fill="#00294E" transform="translate(0,0)"/>
<path d="" fill="#00264F" transform="translate(0,0)"/>
<path d="" fill="#003C69" transform="translate(0,0)"/>
<path d="" fill="#000000" transform="translate(0,0)"/>
<path d="" fill="#004375" transform="translate(0,0)"/>
<path d="" fill="#001C00" transform="translate(0,0)"/>
<path d="" fill="#004385" transform="translate(0,0)"/>
<path d="" fill="#005187" transform="translate(0,0)"/>
<path d="" fill="#003056" transform="translate(0,0)"/>
<path d="" fill="#0091FF" transform="translate(0,0)"/>
<path d="" fill="#002500" transform="translate(0,0)"/>
<path d="" fill="#008EBB" transform="translate(0,0)"/>
<path d="" fill="#002F56" transform="translate(0,0)"/>
<path d="" fill="#00C5FF" transform="translate(0,0)"/>
<path d="" fill="#00CAF8" transform="translate(0,0)"/>
<path d="" fill="#001E1A" transform="translate(0,0)"/>
<path d="" fill="#000C14" transform="translate(0,0)"/>
<path d="" fill="#00B2FF" transform="translate(0,0)"/>
<path d="" fill="#00ACFA" transform="translate(0,0)"/>
<path d="" fill="#007659" transform="translate(0,0)"/>
<path d="" fill="#002146" transform="translate(0,0)"/>
<path d="" fill="#004B67" transform="translate(0,0)"/>
<path d="" fill="#003668" transform="translate(0,0)"/>
<path d="" fill="#000000" transform="translate(0,0)"/>
<path d="" fill="#005CA9" transform="translate(0,0)"/>
<path d="" fill="#000000" transform="translate(0,0)"/>
<path d="" fill="#003C75" transform="translate(0,0)"/>
<path d="" fill="#000000" transform="translate(0,0)"/>
<path d="" fill="#00FFFF" transform="translate(0,0)"/>
<path d="" fill="#00DFFF" transform="translate(0,0)"/>
<path d="" fill="#0076BA" transform="translate(0,0)"/>
<path d="" fill="#006EC0" transform="translate(0,0)"/>
<path d="" fill="#00586E" transform="translate(0,0)"/>
<path d="" fill="#006C7D" transform="translate(0,0)"/>
<path d="" fill="#00656C" transform="translate(0,0)"/>
<path d="" fill="#003554" transform="translate(0,0)"/>
<path d="" fill="#00E2FF" transform="translate(0,0)"/>
<path d="" fill="#00D8FF" transform="translate(0,0)"/>
<path d="" fill="#0081D3" transform="translate(0,0)"/>
<path d="" fill="#0085D7" transform="translate(0,0)"/>
<path d="" fill="#0076A2" transform="translate(0,0)"/>
<path d="" fill="#00729E" transform="translate(0,0)"/>
<path d="" fill="#007F00" transform="translate(0,0)"/>
<path d="" fill="#005179" transform="translate(0,0)"/>
<path d="" fill="#00E8FF" transform="translate(0,0)"/>
<path d="" fill="#00D3FF" transform="translate(0,0)"/>
<path d="" fill="#00B5FF" transform="translate(0,0)"/>
<path d="" fill="#00B0FF" transform="translate(0,0)"/>
<path d="" fill="#008DCC" transform="translate(0,0)"/>
<path d="" fill="#0091D3" transform="translate(0,0)"/>
<path d="" fill="#000B25" transform="translate(0,0)"/>
<path d="" fill="#000000" transform="translate(0,0)"/>
<path d="" fill="#008AFF" transform="translate(0,0)"/>
<path d="" fill="#008BB5" transform="translate(0,0)"/>
<path d="" fill="#00BF46" transform="translate(0,0)"/>
<path d="" fill="#00C27E" transform="translate(0,0)"/>
<path d="" fill="#00ACF5" transform="translate(0,0)"/>
<path d="" fill="#00ABF2" transform="translate(0,0)"/>
<path d="" fill="#006D8B" transform="translate(0,0)"/>
<path d="" fill="#003660" transform="translate(0,0)"/>
<path d="" fill="#00D3FF" transform="translate(0,0)"/>
<path d="" fill="#00D4FF" transform="translate(0,0)"/>
<path d="" fill="#00788C" transform="translate(0,0)"/>
<path d="" fill="#00FFFF" transform="translate(0,0)"/>
<path d="" fill="#005B71" transform="translate(0,0)"/>
<path d="" fill="#000000" transform="translate(0,0)"/>
<path d="" fill="#0093D0" transform="translate(0,0)"/>
<path d="" fill="#00B1FE" transform="translate(0,0)"/>
<path d="" fill="#004561" transform="translate(0,0)"/>
<path d="" fill="#004463" transform="translate(0,0)"/>
<path d="" fill="#00475E" transform="translate(0,0)"/>
<path d="" fill="#0076A4" transform="translate(0,0)"/>
<path d="" fill="#00486B" transform="translate(0,0)"/>
<path d="" fill="#004869" transform="translate(0,0)"/>
<path d="" fill="#00BAFF" transform="translate(0,0)"/>
<path d="" fill="#00E2FF" transform="translate(0,0)"/>
<path d="" fill="#00E4FF" transform="translate(0,0)"/>
<path d="" fill="#004F66" transform="translate(0,0)"/>
<path d="" fill="#00B9FF" transform="translate(0,0)"/>
<path d="" fill="#00BFFF" transform="translate(0,0)"/>
<path d="" fill="#0080BB" transform="translate(0,0)"/>
<path d="" fill="#007EB6" transform="translate(0,0)"/>
<path d="" fill="#003C4E" transform="translate(0,0)"/>
<path d="" fill="#005F80" transform="translate(0,0)"/>
<path d="" fill="#004B60" transform="translate(0,0)"/>
<path d="" fill="#000906" transform="translate(0,0)"/>
<path d="" fill="#001727" transform="translate(0,0)"/>
<path d="" fill="#008FBF" transform="translate(0,0)"/>
<path d="" fill="#009CD0" transform="translate(0,0)"/>
<path d="" fill="#00D6FF" transform="translate(0,0)"/>
<path d="" fill="#006B9B" transform="translate(0,0)"/>
<path d="" fill="#006D9D" transform="translate(0,0)"/>
<path d="" fill="#00FEFF" transform="translate(0,0)"/>
<path d="" fill="#0096CF" transform="translate(0,0)"/>
<path d="" fill="#00476F" transform="translate(0,0)"/>
<path d="" fill="#00D0FF" transform="translate(0,0)"/>
<path d="" fill="#0083B1" transform="translate(0,0)"/>
<path d="" fill="#0084B3" transform="translate(0,0)"/>
<path d="" fill="#00558B" transform="translate(0,0)"/>
<path d="" fill="#00BBFF" transform="translate(0,0)"/>
<path d="" fill="#00BEFF" transform="translate(0,0)"/>
<path d="" fill="#000000" transform="translate(0,0)"/>
<path d="" fill="#002B31" transform="translate(0,0)"/>
<path d="" fill="#006143" transform="translate(0,0)"/>
<path d="" fill="#004B48" transform="translate(0,0)"/>
<path d="" fill="#00A3E6" transform="translate(0,0)"/>
<path d="" fill="#0099DB" transform="translate(0,0)"/>
<path d="" fill="#0099DB" transform="translate(0,0)"/>
<path d="" fill="#00E4FF" transform="translate(0,0)"/>
<path d="" fill="#00A5F3" transform="translate(0,0)"/>
<path d="" fill="#000000" transform="translate(0,0)"/>
<path d="" fill="#0075AC" transform="translate(0,0)"/>
<path d="" fill="#0095D2" transform="translate(0,0)"/>
<path d="" fill="#0091CB" transform="translate(0,0)"/>
<path d="" fill="#00416A" transform="translate(0,0)"/>
<path d="" fill="#008EC7" transform="translate(0,0)"/>
<path d="" fill="#008AC0" transform="translate(0,0)"/>
<path d="" fill="#001F2C" transform="translate(0,0)"/>
<path d="" fill="#000000" transform="translate(0,0)"/>
<path d="" fill="#00B2FF" transform="translate(0,0)"/>
<path d="" fill="#00BDFF" transform="translate(0,0)"/>
<path d="" fill="#00B5FE" transform="translate(0,0)"/>
<path d="" fill="#009ADA" transform="translate(0,0)"/>
<path d="" fill="#0094D1" transform="translate(0,0)"/>
<path d="" fill="#00B5F9" transform="translate(0,0)"/>
<path d="" fill="#00BAFF" transform="translate(0,0)"/>
<path d="" fill="#00BBFF" transform="translate(0,0)"/>
<path d="" fill="#00394F" transform="translate(0,0)"/>
<path d="" fill="#00DFFF" transform="translate(0,0)"/>
<path d="" fill="#00333F" transform="translate(0,0)"/>
<path d="" fill="#003643" transform="translate(0,0)"/>
<path d="" fill="#001100" transform="translate(0,0)"/>
<path d="" fill="#0099E4" transform="translate(0,0)"/>
<path d="" fill="#009CE9" transform="translate(0,0)"/>
<path d="" fill="#00425C" transform="translate(0,0)"/>
<path d="" fill="#005076" transform="translate(0,0)"/>
<path d="" fill="#0097D3" transform="translate(0,0)"/>
<path d="" fill="#0092CE" transform="translate(0,0)"/>
<path d="" fill="#00FEFF" transform="translate(0,0)"/>
<path d="" fill="#005577" transform="translate(0,0)"/>
<path d="" fill="#005677" transform="translate(0,0)"/>
<path d="" fill="#00CBFF" transform="translate(0,0)"/>
<path d="" fill="#00DAFF" transform="translate(0,0)"/>
<path d="" fill="#00DEFF" transform="translate(0,0)"/>
<path d="" fill="#005673" transform="translate(0,0)"/>
<path d="" fill="#00CAFF" transform="translate(0,0)"/>
<path d="" fill="#0085D6" transform="translate(0,0)"/>
<path d="" fill="#0081C9" transform="translate(0,0)"/>
<path d="" fill="#00473C" transform="translate(0,0)"/>
<path d="" fill="#003845" transform="translate(0,0)"/>
<path d="" fill="#002B30" transform="translate(0,0)"/>
<path d="" fill="#000F00" transform="translate(0,0)"/>
<path d="" fill="#001B24" transform="translate(0,0)"/>
<path d="" fill="#0091EF" transform="translate(0,0)"/>
<path d="" fill="#0097FF" transform="translate(0,0)"/>
<path d="" fill="#00F2FF" transform="translate(0,0)"/>
<path d="" fill="#005A78" transform="translate(0,0)"/>
<path d="" fill="#005D7C" transform="translate(0,0)"/>
<path d="" fill="#00FFFF" transform="translate(0,0)"/>
<path d="" fill="#0093A7" transform="translate(0,0)"/>
<path d="" fill="#0097AE" transform="translate(0,0)"/>
<path d="" fill="#00537F" transform="translate(0,0)"/>
<path d="" fill="#00DAFF" transform="translate(0,0)"/>
<path d="" fill="#007BA0" transform="translate(0,0)"/>
<path d="" fill="#007CA2" transform="translate(0,0)"/>
<path d="" fill="#00617A" transform="translate(0,0)"/>
<path d="" fill="#00B7FF" transform="translate(0,0)"/>
<path d="" fill="#00C0FF" transform="translate(0,0)"/>
<path d="" fill="#002C4A" transform="translate(0,0)"/>
<path d="" fill="#005DB9" transform="translate(0,0)"/>
<path d="" fill="#00548C" transform="translate(0,0)"/>
<path d="" fill="#00B5FD" transform="translate(0,0)"/>
<path d="" fill="#00A3E2" transform="translate(0,0)"/>
<path d="" fill="#00A3E2" transform="translate(0,0)"/>
<path d="" fill="#00E8FF" transform="translate(0,0)"/>
<path d="" fill="#0096D3" transform="translate(0,0)"/>
<path d="" fill="#009AD8" transform="translate(0,0)"/>
<path d="" fill="#00001D" transform="translate(0,0)"/>
<path d="" fill="#007096" transform="translate(0,0)"/>
<path d="" fill="#0094D2" transform="translate(0,0)"/>
<path d="" fill="#008EC6" transform="translate(0,0)"/>
<path d="" fill="#004850" transform="translate(0,0)"/>
<path d="" fill="#0092D7" transform="translate(0,0)"/>
<path d="" fill="#008DD3" transform="translate(0,0)"/>
<path d="" fill="#001F38" transform="translate(0,0)"/>
<path d="" fill="#000000" transform="translate(0,0)"/>
<path d="" fill="#00B6FF" transform="translate(0,0)"/>
<path d="" fill="#00C2FF" transform="translate(0,0)"/>
<path d="" fill="#00AFFF" transform="translate(0,0)"/>
<path d="" fill="#0096D9" transform="translate(0,0)"/>
<path d="" fill="#0088C4" transform="translate(0,0)"/>
<path d="" fill="#00C3FF" transform="translate(0,0)"/>
<path d="" fill="#00A8F3" transform="translate(0,0)"/>
<path d="" fill="#009BDF" transform="translate(0,0)"/>
<path d="" fill="#00BDFF" transform="translate(0,0)"/>
<path d="" fill="#00C8FF" transform="translate(0,0)"/>
<path d="" fill="#0095D4" transform="translate(0,0)"/>
<path d="" fill="#0086C0" transform="translate(0,0)"/>
<path d="" fill="#00B5FF" transform="translate(0,0)"/>
<path d="" fill="#00A2E9" transform="translate(0,0)"/>
<path d="" fill="#00BAFC" transform="translate(0,0)"/>
<path d="" fill="#000000" transform="translate(0,0)"/>
<path d="" fill="#00B6FF" transform="translate(0,0)"/>
<path d="" fill="#00C4FF" transform="translate(0,0)"/>
<path d="" fill="#0099D9" transform="translate(0,0)"/>
<path d="" fill="#0094D1" transform="translate(0,0)"/>
<path d="" fill="#00141D" transform="translate(0,0)"/>
<path d="" fill="#005882" transform="translate(0,0)"/>
<path d="" fill="#001404" transform="translate(0,0)"/>
<path d="" fill="#008AAC" transform="translate(0,0)"/>
<path d="" fill="#0098D3" transform="translate(0,0)"/>
<path d="" fill="#0091C6" transform="translate(0,0)"/>
<path d="" fill="#00A3E5" transform="translate(0,0)"/>
<path d="" fill="#00A3E5" transform="translate(0,0)"/>
<path d="" fill="#00EFFF" transform="translate(0,0)"/>
<path d="" fill="#00A0E4" transform="translate(0,0)"/>
<path d="" fill="#00ACF1" transform="translate(0,0)"/>
<path d="" fill="#002F43" transform="translate(0,0)"/>
<path d="" fill="#003743" transform="translate(0,0)"/>
<path d="" fill="#00343F" transform="translate(0,0)"/>
<path d="" fill="#00B1FE" transform="translate(0,0)"/>
<path d="" fill="#00B6FF" transform="translate(0,0)"/>
<path d="" fill="#000000" transform="translate(0,0)"/>
<path d="" fill="#00628D" transform="translate(0,0)"/>
<path d="" fill="#005276" transform="translate(0,0)"/>
<path d="" fill="#00C0FF" transform="translate(0,0)"/>
<path d="" fill="#00759C" transform="translate(0,0)"/>
<path d="" fill="#00759C" transform="translate(0,0)"/>
<path d="" fill="#007393" transform="translate(0,0)"/>
<path d="" fill="#007497" transform="translate(0,0)"/>
<path d="" fill="#00FEFF" transform="translate(0,0)"/>
<path d="" fill="#0097AD" transform="translate(0,0)"/>
<path d="" fill="#00D7FF" transform="translate(0,0)"/>
<path d="" fill="#002A36" transform="translate(0,0)"/>
<path d="" fill="#008ECC" transform="translate(0,0)"/>
<path d="" fill="#0094D6" transform="translate(0,0)"/>
<path d="" fill="#005867" transform="translate(0,0)"/>
<path d="" fill="#005058" transform="translate(0,0)"/>
<path d="" fill="#000F00" transform="translate(0,0)"/>
<path d="" fill="#004A65" transform="translate(0,0)"/>
<path d="" fill="#005A80" transform="translate(0,0)"/>
<path d="" fill="#00C1FF" transform="translate(0,0)"/>
<path d="" fill="#00C7FF" transform="translate(0,0)"/>
<path d="" fill="#007CCB" transform="translate(0,0)"/>
<path d="" fill="#0079C1" transform="translate(0,0)"/>
<path d="" fill="#005871" transform="translate(0,0)"/>
<path d="" fill="#00576F" transform="translate(0,0)"/>
<path d="" fill="#00C3FF" transform="translate(0,0)"/>
<path d="" fill="#00E4FF" transform="translate(0,0)"/>
<path d="" fill="#00E9FF" transform="translate(0,0)"/>
<path d="" fill="#00EFFF" transform="translate(0,0)"/>
<path d="" fill="#005C83" transform="translate(0,0)"/>
<path d="" fill="#0098D7" transform="translate(0,0)"/>
<path d="" fill="#0094CF" transform="translate(0,0)"/>
<path d="" fill="#0091D1" transform="translate(0,0)"/>
<path d="" fill="#008FD0" transform="translate(0,0)"/>
<path d="" fill="#003B47" transform="translate(0,0)"/>
<path d="" fill="#000F12" transform="translate(0,0)"/>
<path d="" fill="#004D60" transform="translate(0,0)"/>
<path d="" fill="#00D2FF" transform="translate(0,0)"/>
<path d="" fill="#003207" transform="translate(0,0)"/>
<path d="" fill="#003610" transform="translate(0,0)"/>
<path d="" fill="#0086CB" transform="translate(0,0)"/>
<path d="" fill="#0081C3" transform="translate(0,0)"/>
<path d="" fill="#00AFFA" transform="translate(0,0)"/>
<path d="" fill="#00BDFF" transform="translate(0,0)"/>
<path d="" fill="#00BEFF" transform="translate(0,0)"/>
<path d="" fill="#000000" transform="translate(0,0)"/>
<path d="" fill="#00B2FC" transform="translate(0,0)"/>
<path d="" fill="#00BCFF" transform="translate(0,0)"/>
<path d="" fill="#008FCA" transform="translate(0,0)"/>
<path d="" fill="#008CC7" transform="translate(0,0)"/>
<path d="" fill="#001C27" transform="translate(0,0)"/>
<path d="" fill="#003F67" transform="translate(0,0)"/>
<path d="" fill="#000B00" transform="translate(0,0)"/>
<path d="" fill="#0087AB" transform="translate(0,0)"/>
<path d="" fill="#0094C9" transform="translate(0,0)"/>
<path d="" fill="#008FBF" transform="translate(0,0)"/>
<path d="" fill="#009EDE" transform="translate(0,0)"/>
<path d="" fill="#009EDE" transform="translate(0,0)"/>
<path d="" fill="#00DBFF" transform="translate(0,0)"/>
<path d="" fill="#00A9F7" transform="translate(0,0)"/>
<path d="" fill="#00A6E5" transform="translate(0,0)"/>
<path d="" fill="#002235" transform="translate(0,0)"/>
<path d="" fill="#005B7C" transform="translate(0,0)"/>
<path d="" fill="#00526F" transform="translate(0,0)"/>
<path d="" fill="#00B3FF" transform="translate(0,0)"/>
<path d="" fill="#00B8FF" transform="translate(0,0)"/>
<path d="" fill="#000000" transform="translate(0,0)"/>
<path d="" fill="#005E84" transform="translate(0,0)"/>
<path d="" fill="#00476C" transform="translate(0,0)"/>
<path d="" fill="#00BBFF" transform="translate(0,0)"/>
<path d="" fill="#007CA9" transform="translate(0,0)"/>
<path d="" fill="#007DA9" transform="translate(0,0)"/>
<path d="" fill="#00789E" transform="translate(0,0)"/>
<path d="" fill="#00789F" transform="translate(0,0)"/>
<path d="" fill="#00F6FF" transform="translate(0,0)"/>
<path d="" fill="#0093A3" transform="translate(0,0)"/>
<path d="" fill="#00D8FF" transform="translate(0,0)"/>
<path d="" fill="#00282F" transform="translate(0,0)"/>
<path d="" fill="#0086BE" transform="translate(0,0)"/>
<path d="" fill="#008DCD" transform="translate(0,0)"/>
<path d="" fill="#005B68" transform="translate(0,0)"/>
<path d="" fill="#005259" transform="translate(0,0)"/>
<path d="" fill="#000B00" transform="translate(0,0)"/>
<path d="" fill="#004C69" transform="translate(0,0)"/>
<path d="" fill="#00567A" transform="translate(0,0)"/>
<path d="" fill="#00BAFF" transform="translate(0,0)"/>
<path d="" fill="#00C0FF" transform="translate(0,0)"/>
<path d="" fill="#007FCF" transform="translate(0,0)"/>
<path d="" fill="#007CC7" transform="translate(0,0)"/>
<path d="" fill="#003E65" transform="translate(0,0)"/>
<path d="" fill="#003E64" transform="translate(0,0)"/>
<path d="" fill="#00C1FF" transform="translate(0,0)"/>
<path d="" fill="#00EAFF" transform="translate(0,0)"/>
<path d="" fill="#00577B" transform="translate(0,0)"/>
<path d="" fill="#007BAE" transform="translate(0,0)"/>
<path d="" fill="#00FFFF" transform="translate(0,0)"/>
<path d="" fill="#004254" transform="translate(0,0)"/>
<path d="" fill="#0099CC" transform="translate(0,0)"/>
<path d="" fill="#00ABF6" transform="translate(0,0)"/>
<path d="" fill="#000000" transform="translate(0,0)"/>
<path d="" fill="#00517C" transform="translate(0,0)"/>
<path d="" fill="#007DAD" transform="translate(0,0)"/>
<path d="" fill="#004465" transform="translate(0,0)"/>
<path d="" fill="#006485" transform="translate(0,0)"/>
<path d="" fill="#00ACF5" transform="translate(0,0)"/>
<path d="" fill="#00AAF4" transform="translate(0,0)"/>
<path d="" fill="#00C1FF" transform="translate(0,0)"/>
<path d="" fill="#00C5FF" transform="translate(0,0)"/>
<path d="" fill="#0077A5" transform="translate(0,0)"/>
<path d="" fill="#0099D3" transform="translate(0,0)"/>
<path d="" fill="#000000" transform="translate(0,0)"/>
<path d="" fill="#001717" transform="translate(0,0)"/>
<path d="" fill="#008FCC" transform="translate(0,0)"/>
<path d="" fill="#0091D1" transform="translate(0,0)"/>
<path d="" fill="#00AEFC" transform="translate(0,0)"/>
<path d="" fill="#00A8F5" transform="translate(0,0)"/>
<path d="" fill="#00D5FF" transform="translate(0,0)"/>
<path d="" fill="#00F1FF" transform="translate(0,0)"/>
<path d="" fill="#005172" transform="translate(0,0)"/>
<path d="" fill="#007DB1" transform="translate(0,0)"/>
<path d="" fill="#0079A8" transform="translate(0,0)"/>
<path d="" fill="#0077A2" transform="translate(0,0)"/>
<path d="" fill="#0082BE" transform="translate(0,0)"/>
<path d="" fill="#0087C4" transform="translate(0,0)"/>
<path d="" fill="#00DCFF" transform="translate(0,0)"/>
<path d="" fill="#00E8FF" transform="translate(0,0)"/>
<path d="" fill="#00384E" transform="translate(0,0)"/>
<path d="" fill="#006292" transform="translate(0,0)"/>
<path d="" fill="#004458" transform="translate(0,0)"/>
<path d="" fill="#00455A" transform="translate(0,0)"/>
<path d="" fill="#007EBB" transform="translate(0,0)"/>
<path d="" fill="#0075AE" transform="translate(0,0)"/>
<path d="" fill="#00F1FF" transform="translate(0,0)"/>
<path d="" fill="#005673" transform="translate(0,0)"/>
<path d="" fill="#006E9A" transform="translate(0,0)"/>
<path d="" fill="#00B3FF" transform="translate(0,0)"/>
<path d="" fill="#00AFFA" transform="translate(0,0)"/>
<path d="" fill="#00C6FF" transform="translate(0,0)"/>
<path d="" fill="#00CCFF" transform="translate(0,0)"/>
<path d="" fill="#0081AE" transform="translate(0,0)"/>
<path d="" fill="#009CE6" transform="translate(0,0)"/>
<path d="" fill="#000000" transform="translate(0,0)"/>
<path d="" fill="#001428" transform="translate(0,0)"/>
<path d="" fill="#001025" transform="translate(0,0)"/>
<path d="" fill="#0091CF" transform="translate(0,0)"/>
<path d="" fill="#0095D5" transform="translate(0,0)"/>
<path d="" fill="#00B2FA" transform="translate(0,0)"/>
<path d="" fill="#00ADF3" transform="translate(0,0)"/>
<path d="" fill="#00D1FF" transform="translate(0,0)"/>
<path d="" fill="#00F7FF" transform="translate(0,0)"/>
<path d="" fill="#004B6A" transform="translate(0,0)"/>
<path d="" fill="#007CAF" transform="translate(0,0)"/>
<path d="" fill="#0084BA" transform="translate(0,0)"/>
<path d="" fill="#007CB6" transform="translate(0,0)"/>
<path d="" fill="#0079B1" transform="translate(0,0)"/>
<path d="" fill="#0093CB" transform="translate(0,0)"/>
<path d="" fill="#0097D1" transform="translate(0,0)"/>
<path d="" fill="#00E8FF" transform="translate(0,0)"/>
<path d="" fill="#00F9FF" transform="translate(0,0)"/>
<path d="" fill="#000000" transform="translate(0,0)"/>
<path d="" fill="#007DA7" transform="translate(0,0)"/>
</svg>
