<?xml version="1.0" encoding="UTF-8"?>
<!--Generator: Apple Native CoreSVG 232.5-->
<!DOCTYPE svg
PUBLIC "-//W3C//DTD SVG 1.1//EN"
       "http://www.w3.org/Graphics/SVG/1.1/DTD/svg11.dtd">
<svg version="1.1" xmlns="http://www.w3.org/2000/svg" xmlns:xlink="http://www.w3.org/1999/xlink" width="635.986" height="636.475">
 <g>
  <rect height="636.475" opacity="0" width="635.986" x="0" y="0"/>
  <path d="M317.871 636.475C491.943 636.475 635.986 492.432 635.986 318.359C635.986 144.531 491.699 0.488281 317.627 0.488281C143.799 0.488281 0 144.531 0 318.359C0 492.432 144.043 636.475 317.871 636.475Z" fill="#212121"/>
  <path d="M289.734 351.461C263.645 374.177 249.023 403.093 249.023 428.955C249.023 435.626 250.315 442.882 253.914 449.463L131.836 449.463C113.281 449.463 105.469 442.139 105.469 427.734C105.469 373.779 161.865 331.787 221.191 331.787C245.943 331.787 270.062 339.037 289.734 351.461ZM536.133 428.955C536.133 442.871 527.832 449.463 504.639 449.463L302.246 449.463C279.541 449.463 270.508 442.871 270.508 428.955C270.508 388.428 321.777 332.275 404.053 332.275C485.596 332.275 536.133 388.428 536.133 428.955ZM276.123 246.582C276.123 281.006 251.221 307.373 221.191 307.373C191.65 307.373 166.504 281.006 166.504 246.826C166.504 213.867 192.139 187.5 221.191 187.5C250.732 187.5 276.123 213.379 276.123 246.582ZM466.553 234.131C466.553 273.438 437.988 303.955 404.053 303.955C369.385 303.955 341.064 273.438 341.064 234.375C341.064 196.533 369.629 166.26 404.053 166.26C437.744 166.26 466.553 195.801 466.553 234.131Z" fill="#ffffff" fill-opacity="0.85"/>
 </g>
</svg>
